<svg xmlns="http://www.w3.org/2000/svg" height="32.394" width="29" viewBox="0 0 29 33"><path d="M16.441 15.134l-1.335 1.335c-.19-.096-.381-.096-.572-.096-.19 0-.381 0-.572.096l-2.766-2.766a.748.748 0 0 0-1.049 0 .748.748 0 0 0 0 1.05l2.766 2.765c-.096.19-.096.381-.096.572a1.71 1.71 0 0 0 1.717 1.716 1.71 1.71 0 0 0 1.717-1.716c0-.19 0-.382-.096-.572l1.335-1.335a.748.748 0 0 0 0-1.05.748.748 0 0 0-1.049 0zm-1.907 3.433a.41.41 0 0 1-.381-.382c0-.19.19-.381.381-.381.19 0 .381.19.381.381a.41.41 0 0 1-.381.382z"/><path d="M23.021 7.218l.859-1.144 3.242 2.289c.095.095.286.095.381.095h.096c.19 0 .381-.095.477-.286 1.62-2.384 1.049-5.626-1.24-7.248-2.384-1.62-5.627-1.049-7.248 1.24-.19.286-.19.763.191.954l2.956 2.002-.858 1.145C19.779 4.93 17.3 4.167 14.534 4.167s-5.15.858-7.343 2.193l-.763-1.144 2.956-2.003c.286-.19.382-.667.191-.954C7.86-.125 4.616-.697 2.232.924-.152 2.546-.724 5.788.992 8.172c.096.19.286.286.477.286h.095c.191 0 .287 0 .382-.095l3.242-2.289.859 1.144C2.804 9.793.707 13.703.707 18.09c0 4.768 2.479 9.06 6.198 11.539L5.76 31.25c-.19.286-.19.763.191.954.096.19.286.19.382.19.19 0 .477-.095.572-.286l1.24-1.716c1.907.953 4.1 1.526 6.389 1.526 2.289 0 4.482-.573 6.39-1.526l1.24 1.716c.094.191.38.286.571.286.096 0 .286 0 .382-.095.286-.19.381-.667.19-.954l-1.144-1.716c3.72-2.48 6.199-6.676 6.199-11.54 0-4.386-2.098-8.296-5.34-10.87zm2.957-5.15c1.525 1.05 2.002 3.052 1.24 4.578L21.208 2.45c1.24-1.24 3.243-1.43 4.769-.381zM1.755 6.743c-.667-1.622-.19-3.624 1.335-4.673.668-.477 1.43-.668 2.194-.668.953 0 1.907.382 2.67 1.05zm12.779 23.745A12.373 12.373 0 0 1 2.137 18.09 12.373 12.373 0 0 1 14.534 5.693 12.373 12.373 0 0 1 26.931 18.09a12.373 12.373 0 0 1-12.397 12.397z"/><path d="M14.534 7.981C8.908 7.981 4.33 12.56 4.33 18.09s4.578 10.204 10.204 10.204 10.204-4.578 10.204-10.204c0-5.627-4.578-10.109-10.204-10.109zm8.106 10.872h.667c-.19 1.907-.953 3.624-2.098 5.054l-.476-.477a.748.748 0 0 0-1.05 0 .748.748 0 0 0 0 1.05l.477.476c-1.335 1.144-3.147 1.907-5.054 2.098v-.667a.752.752 0 0 0-.763-.763.752.752 0 0 0-.763.763v.667c-1.907-.19-3.623-.954-5.054-2.098l.477-.477a.748.748 0 0 0 0-1.049.748.748 0 0 0-1.05 0l-.19.382c-1.144-1.335-1.907-3.147-2.098-5.055h.668a.752.752 0 0 0 .763-.763c0-.476-.286-.762-.763-.762h-.668c.19-1.908.954-3.624 2.098-5.055l.477.477c.095.095.286.19.477.19.19 0 .381-.095.477-.19a.748.748 0 0 0 0-1.049l-.382-.286c1.335-1.144 3.147-1.907 5.054-2.098v.668c0 .381.287.762.763.762a.752.752 0 0 0 .763-.762v-.573c1.908.191 3.624.954 5.055 2.098l-.477.477a.748.748 0 0 0 0 1.05c.095.095.286.19.477.19.19 0 .381-.095.476-.19l.477-.478c1.145 1.335 1.907 3.147 2.098 5.055h-.667a.752.752 0 0 0-.763.763c-.096.19.19.572.572.572z"/></svg>
