<svg xmlns="http://www.w3.org/2000/svg" height="24" width="25" viewBox="0 0 25 24"><path d="M22.917 2.248H19.53V.75c0-.413-.351-.75-.783-.75-.43 0-.782.337-.782.75v1.498h-4.683V.75c0-.413-.351-.75-.782-.75-.432 0-.782.337-.782.75v1.498H7.03V.75c0-.413-.351-.75-.783-.75a.764.764 0 0 0-.777.75v1.498H2.083c-1.148 0-2.083.897-2.083 2v17.749C0 23.103.935 24 2.083 24h20.834C24.065 24 25 23.103 25 21.997V4.247c0-1.102-.935-2-2.083-2zm.519 19.749a.51.51 0 0 1-.519.501H2.083a.51.51 0 0 1-.519-.501V4.247c0-.275.233-.497.519-.497H5.47V5.25c0 .414.346.746.777.746.432 0 .782-.333.782-.746V3.75h4.688V5.25c0 .414.351.746.782.746.43 0 .782-.333.782-.746V3.75h4.683V5.25c0 .414.352.746.782.746.432 0 .782-.333.782-.746V3.75h3.387c.287 0 .519.223.519.497v17.75zm0 0"/><path d="M5.47 9h3.124v2.249H5.47zM5.47 12.75h3.124v2.248H5.47zM5.47 16.5h3.124v2.249H5.47zM10.936 16.5h3.124v2.249h-3.124zM10.936 12.75h3.124v2.248h-3.124zM10.936 9h3.124v2.249h-3.124zM16.406 16.5h3.124v2.249h-3.124zM16.406 12.75h3.124v2.248h-3.124zM16.406 9h3.124v2.249h-3.124z"/></svg>