<svg xmlns="http://www.w3.org/2000/svg" height="24" width="24" viewBox="0 0 24 24"><g fill="#bcbcbc"><path d="M12 0C5.383 0 0 5.383 0 12c0 6.616 5.382 12 12 12s12-5.383 12-12c0-6.618-5.383-12-12-12zm.788 22.393v-1.604a.79.79 0 0 0-1.578 0v1.604c-5.12-.385-9.22-4.485-9.605-9.605H3.21a.79.79 0 0 0 0-1.577H1.605C1.99 6.09 6.09 1.99 11.21 1.606V3.21a.79.79 0 0 0 1.578 0V1.606c5.12.385 9.22 4.485 9.605 9.605h-1.605a.788.788 0 1 0 0 1.577h1.605c-.385 5.121-4.484 9.22-9.605 9.605zm0 0"/><path d="M17.094 11.212h-4.406L9.136 5.686a.788.788 0 1 0-1.327.853l3.786 5.889.003.005c.017.026.036.051.056.074.004.007.01.011.015.017.016.016.03.033.046.047l.025.024.045.036a.632.632 0 0 0 .098.064l.012.006a.713.713 0 0 0 .249.08l.024.003a.719.719 0 0 0 .085.005H17.094a.788.788 0 1 0 0-1.577zm0 0"/></g></svg>