<svg xmlns="http://www.w3.org/2000/svg" height="17" width="31" viewBox="0 0 31 17"><path d="M30.795 8.193a18.372 18.372 0 0 0-30.59 0L0 8.5l.205.307a18.372 18.372 0 0 0 30.59 0L31 8.5zM15.5 15.9A17.27 17.27 0 0 1 1.328 8.5 17.27 17.27 0 0 1 15.5 1.101 17.271 17.271 0 0 1 29.673 8.5 17.271 17.271 0 0 1 15.5 15.899zm0 0"/><path d="M15.51 1.653c-3.633 0-6.59 2.966-6.59 6.612s2.956 6.612 6.59 6.612 6.592-2.966 6.592-6.612-2.958-6.612-6.591-6.612zm0 12.121c-3.027 0-5.492-2.471-5.492-5.51 0-3.037 2.464-5.509 5.493-5.509 3.028 0 5.492 2.472 5.492 5.51s-2.464 5.51-5.492 5.51zm0 0"/><path d="M15.51 6.06c-1.21 0-2.196.99-2.196 2.205s.985 2.204 2.197 2.204c1.211 0 2.196-.99 2.196-2.204a2.203 2.203 0 0 0-2.196-2.204zm0 3.306a1.101 1.101 0 1 1 0-2.203 1.101 1.101 0 1 1 0 2.203zm0 0"/><path d="M16.06 4.408a.55.55 0 0 0-.55-.551c-2.422 0-4.392 1.977-4.392 4.408a.55.55 0 1 0 1.098 0 3.304 3.304 0 0 1 3.295-3.306.551.551 0 0 0 .549-.551zm0 0"/></svg>