<svg xmlns="http://www.w3.org/2000/svg" height="22" width="29" viewBox="190 384 29 22"><path d="M218.463 394.826a.53.53 0 0 0 .537-.524v-4.89a.53.53 0 0 0-.537-.523h-1.611v-1.571a.516.516 0 0 0-.133-.345l-2.506-2.794a.544.544 0 0 0-.809 0l-2.506 2.794a.516.516 0 0 0-.133.345v1.571h-3.222v-1.571a.516.516 0 0 0-.132-.345l-2.507-2.794a.544.544 0 0 0-.808 0l-2.507 2.794a.516.516 0 0 0-.132.345v1.571h-3.222v-1.571a.516.516 0 0 0-.133-.345l-2.506-2.794a.544.544 0 0 0-.809 0l-2.506 2.794a.516.516 0 0 0-.133.345v1.571h-1.611a.53.53 0 0 0-.537.524v4.889c0 .29.24.524.537.524h1.611v1.745h-1.611a.53.53 0 0 0-.537.524v4.89c0 .289.24.523.537.523h1.611v2.444h-.895a.53.53 0 0 0-.537.524c0 .29.24.524.537.524h26.494a.53.53 0 0 0 .537-.524.53.53 0 0 0-.537-.524h-.895v-2.444h1.611a.53.53 0 0 0 .537-.524v-4.889a.53.53 0 0 0-.537-.524h-1.611v-1.745zm-.537-4.89v3.842h-1.074v-3.841zm-10.383 7.683h3.222v3.841h-3.222zm3.222-1.048h-3.222v-1.745h3.222zm-3.222 5.937h3.222v2.444h-3.222zm3.222-12.571v3.841h-3.222v-3.841zm-12.53 7.682h3.222v3.841h-3.222zm3.222-1.048h-3.222v-1.745h3.222zm-3.222 5.937h3.222v2.444h-3.222zm3.222-12.571v3.841h-3.222v-3.841zm-10.383 3.841v-3.841h1.074v3.841zm0 7.682v-3.841h1.074v3.841zm2.148 3.492v-17.438l1.97-2.195 1.969 2.195v17.438zm9.309 0v-17.438l1.969-2.195 1.97 2.195v17.438zm9.308 0v-17.438l1.97-2.195 1.969 2.195v17.438zm6.087-7.333v3.841h-1.074v-3.841z"/><path d="M195.191 390.714a.886.886 0 0 0-.895.873c0 .482.402.874.895.874a.886.886 0 0 0 .896-.874.856.856 0 0 0-.262-.617.902.902 0 0 0-.634-.256zM195.191 399.095a.886.886 0 0 0-.895.874c0 .481.402.873.895.873a.884.884 0 0 0 .895-.873.856.856 0 0 0-.262-.618.897.897 0 0 0-.633-.256zM204.5 390.714a.886.886 0 0 0-.895.873c0 .482.401.874.895.874a.886.886 0 0 0 .895-.874.856.856 0 0 0-.262-.617.9.9 0 0 0-.633-.256zM204.5 399.095a.886.886 0 0 0-.895.874c0 .481.401.873.895.873a.884.884 0 0 0 .894-.873.856.856 0 0 0-.262-.618.897.897 0 0 0-.632-.256zM213.809 390.714a.886.886 0 0 0-.896.873c0 .482.402.874.896.874a.886.886 0 0 0 .895-.874.856.856 0 0 0-.262-.617.9.9 0 0 0-.633-.256zM213.809 399.095a.886.886 0 0 0-.896.874c0 .481.402.873.896.873a.886.886 0 0 0 .895-.873.856.856 0 0 0-.262-.618.9.9 0 0 0-.633-.256z"/></svg>