<svg xmlns="http://www.w3.org/2000/svg" height="24" width="34" viewBox="0 0 34 24"><path d="M0 23h6.31v1H0zM6.31 1.014H3.658V0H2.612v1.014H0v1h6.31zm0 0M27.69 23H34v1h-6.31zM31.345 1.014V0H30.3v1.014h-2.612v1H34v-1zm0 0"/><path d="M27.69 21.5v1h6.268v-1h-.523v-18h.522v-1h-6.269v1.001h.522v2.5h-1.525V4H25.64v2h-2.612V3h-1.045v3h-2.611V1.5h-1.046V6h-2.612V1.5H14.67V6h-2.612V3h-1.045v3H8.4V4H7.355v2H5.747V3.5h.522v-1H0v1.001h.522V21.5H0v1h6.27v-1h-.523v-1h1.608v3h19.33v-3h1.525v1zm1.567-18h3.134v14h-3.134zm0 15h3.134v3h-3.134zm-24.555 3H1.568v-3h3.134zm0-4H1.568v-14h3.134zm2.653 2H5.747V7h1.608zm3.658 3H8.4v-2h2.612zm0-3H8.4V7h2.612zm3.657 3h-2.612v-2h2.612zm0-3h-2.612v-6.38c.374.24.823.38 1.306.38.483 0 .932-.14 1.306-.38zm-1.306-7c-.72 0-1.306-.561-1.306-1.25 0-.69.586-1.25 1.306-1.25.72 0 1.306.56 1.306 1.25s-.586 1.25-1.306 1.25zm1.306-3.12A2.413 2.413 0 0 0 13.364 9c-.483 0-.932.14-1.306.38V7h2.612zm3.657 13.12h-2.612v-2h2.612zm0-3h-2.612v-6.38c.373.24.824.38 1.306.38.483 0 .932-.14 1.306-.38zm-1.307-7c-.72 0-1.306-.561-1.306-1.25 0-.69.586-1.25 1.306-1.25.72 0 1.306.56 1.306 1.25.001.69-.585 1.25-1.306 1.25zm1.307-3.12A2.416 2.416 0 0 0 17.021 9c-.482 0-.932.14-1.306.38V7h2.612zm3.657 13.12h-2.612v-2h2.612zm0-3h-2.612v-6.38c.374.24.823.38 1.306.38.483 0 .931-.14 1.306-.38zm-1.306-7c-.72 0-1.306-.561-1.306-1.25 0-.69.586-1.25 1.306-1.25.72 0 1.306.56 1.306 1.25s-.586 1.25-1.306 1.25zm1.306-3.12A2.416 2.416 0 0 0 20.678 9c-.483 0-.932.14-1.306.38V7h2.612zM25.64 22.5h-2.612v-2h2.612zm0-3h-2.612V7h2.612zm1.044 0V7h1.525v12.5h-1.525zm0 0"/></svg>