<svg xmlns="http://www.w3.org/2000/svg" viewBox="0 0 26 26"><g fill="#fff"><path d="M21.119 0H4.871A4.871 4.871 0 0 0 0 4.871V21.12A4.873 4.873 0 0 0 4.871 26H21.12A4.875 4.875 0 0 0 26 21.119V4.871A4.873 4.873 0 0 0 21.119 0zM9.369 21.747c-2.872 0-5.299-1.174-5.299-3.047 0-1.897 2.214-3.729 5.086-3.729l.904-.008c-.396-.38-.707-.857-.707-1.436 0-.341.112-.674.262-.967l-.475.015c-2.364 0-3.95-1.682-3.95-3.76 0-2.039 2.189-3.8 4.505-3.8h5.189l-1.166.833h-1.643c1.087.42 1.676 1.69 1.676 2.998 0 1.097-.611 2.031-1.469 2.705-.833.652-.991.93-.991 1.485 0 .475.896 1.278 1.363 1.611 1.373.967 1.81 1.865 1.81 3.364-.001 1.871-1.81 3.736-5.095 3.736zm13.377-10.346h-3.244v3.246h-1.627v-3.246h-3.254v-1.65h3.254V6.497h1.627v3.254h3.244v1.65zm0 0"/><path d="M11.886 8.941c-.232-1.745-1.501-3.156-2.833-3.197-1.333-.039-2.231 1.302-1.999 3.055.23 1.753 1.499 3.213 2.831 3.254 1.333.038 2.23-1.349 2.001-3.112zm0 0M10.996 15.662a4.121 4.121 0 0 0-1.286-.207c-1.99-.022-3.768 1.215-3.768 2.697 0 1.509 1.436 2.77 3.418 2.77 2.801 0 3.77-1.182 3.77-2.697 0-.175-.016-.358-.063-.532-.214-.857-.992-1.286-2.071-2.031zm0 0"/></g></svg>