<svg xmlns="http://www.w3.org/2000/svg" viewBox="0 0 26 26"><g fill="#fff"><path d="M19.999 7.002c-.551 0-1.001-.45-1.001-1.001V3.999c0-.551.45-1.001 1.001-1.001h2.002c.546 0 .995.45.995 1.001v2.002c0 .551-.449 1.001-.995 1.001h-2.002zm0 0M12.997 9.19c-.722 0-1.396.21-1.972.561.181-.054.366-.093.566-.093 1.07 0 1.934.864 1.934 1.932a1.935 1.935 0 0 1-1.934 1.934 1.93 1.93 0 0 1-1.932-1.934c0-.2.039-.385.093-.566a3.776 3.776 0 0 0-.562 1.973 3.813 3.813 0 1 0 7.626 0 3.812 3.812 0 0 0-3.819-3.807zm0 0"/><path d="M12.997 7.002a5.997 5.997 0 1 1 0 11.996 5.997 5.997 0 0 1-5.995-6.001 5.996 5.996 0 0 1 5.995-5.995m0-2.002C8.588 5 5 8.588 5 12.997 5 17.412 8.588 21 12.997 21 17.412 21 21 17.412 21 12.997 21 8.588 17.412 5 12.997 5zm0 0"/><path d="M21.121 0H4.872A4.873 4.873 0 0 0 0 4.872v16.249A4.874 4.874 0 0 0 4.872 26h16.249A4.876 4.876 0 0 0 26 21.122V4.872A4.874 4.874 0 0 0 21.121 0zm2.877 8.998H17.46a5.958 5.958 0 0 1 1.537 3.999 5.999 5.999 0 1 1-11.996 0c0-1.537.58-2.934 1.532-3.999H2.002V4.872a2.875 2.875 0 0 1 2.87-2.87h16.249a2.876 2.876 0 0 1 2.876 2.87v4.126zm0 0"/></g></svg>