<svg xmlns="http://www.w3.org/2000/svg" height="22" width="22" viewBox="0 0 22 22"><g fill="#000002"><path d="M21 6.749a1.1 1.1 0 0 0-.36.063V1.078C20.64.484 20.146 0 19.537 0H2.466C1.855 0 1.36.483 1.36 1.078V6.81A1.13 1.13 0 0 0 1 6.75c-.481 0-1 .354-1 1.13v12.613C0 21.324.694 22 1.546 22h18.908c.852 0 1.546-.676 1.546-1.508V7.879c.001-.776-.518-1.13-1-1.13zM2.686 1.293h16.629v6.428l-8.02 6.026a.515.515 0 0 1-.295.083.508.508 0 0 1-.296-.083L2.662 7.703a.625.625 0 0 0 .023-.172V1.293zm17.989 19.199a.221.221 0 0 1-.221.216H1.546a.221.221 0 0 1-.22-.216V8.33l8.569 6.44c.302.227.694.352 1.105.352.411 0 .803-.125 1.105-.352l8.57-6.44zm0 0"/><path d="M6.378 4.219H9.28c.366 0 .663-.29.663-.646a.654.654 0 0 0-.663-.647H6.378a.655.655 0 0 0-.663.647c0 .356.297.646.663.646zm0 0M6.378 6.823h8.927c.367 0 .663-.29.663-.647a.654.654 0 0 0-.663-.646H6.378a.655.655 0 0 0-.663.646c0 .357.297.647.663.647zm0 0M6.378 9.427h8.927c.367 0 .663-.289.663-.646a.654.654 0 0 0-.663-.646H6.378a.655.655 0 0 0-.663.646c0 .357.297.646.663.646zm0 0"/></g></svg>