<svg xmlns="http://www.w3.org/2000/svg" viewBox="0 0 20 27" width="20" height="27"><g fill="#000002"><path d="M10 4.095c-3.25 0-5.897 2.64-5.897 5.885 0 3.245 2.646 5.885 5.897 5.885 3.252 0 5.897-2.64 5.897-5.885 0-3.246-2.645-5.885-5.897-5.885zm0 10.186a4.312 4.312 0 0 1-4.311-4.302 4.312 4.312 0 0 1 8.622 0A4.31 4.31 0 0 1 10 14.28zm0 0"/><path d="M10 0C4.486 0 0 4.477 0 9.98c0 3.173 2.667 7.901 4.257 10.437 1.046 1.668 2.17 3.256 3.164 4.47C9.02 26.838 9.59 27 10 27c.417 0 .956-.163 2.548-2.113.997-1.223 2.122-2.81 3.167-4.469C17.315 17.876 20 13.14 20 9.98 20 4.477 15.514 0 10 0zm4.615 19.186c-2.051 3.323-3.933 5.567-4.624 6.14-.694-.556-2.547-2.747-4.626-6.13-2.401-3.907-3.778-7.266-3.778-9.216 0-4.63 3.774-8.396 8.413-8.396s8.414 3.766 8.414 8.396c0 1.94-1.385 5.295-3.799 9.206zm0 0"/></g></svg>