<svg xmlns="http://www.w3.org/2000/svg" height="32.158" width="24" viewBox="0 0 24 32"><path d="M8.313 32.158a.84.84 0 0 1-.72-.4l-2.078-3.437-4.156.88a.76.76 0 0 1-.8-.32c-.24-.24-.24-.56-.16-.88l3.598-8.792c.16-.4.64-.64 1.119-.48.48.24.64.72.48 1.2l-2.958 7.353 3.117-.719c.32-.08.72.08.88.4l1.518 2.557 2.878-7.114c.16-.4.64-.639 1.119-.48.4.16.64.64.48 1.12l-3.518 8.633c-.08.24-.4.48-.799.48.08 0 .08 0 0 0z"/><path d="M15.987 32.158c-.4 0-.64-.24-.8-.56l-3.437-8.392c-.16-.4 0-.96.48-1.12.4-.16.959 0 1.119.48l2.798 6.795 1.518-2.558c.16-.32.56-.48.88-.4l3.117.72-3.197-7.914c-.16-.4 0-.96.48-1.119.399-.16.958 0 1.118.48l3.837 9.352c.08.32.08.64-.16.88-.24.239-.48.319-.8.319l-4.156-.88-2.078 3.438c-.16.32-.4.48-.72.48z"/><path d="M12.87 24.005c-.16 0-.32-.08-.48-.16l-2.159-1.359-2.477.64c-.4.08-.8-.08-.96-.4l-1.279-2.238-2.478-.56c-.4-.08-.639-.4-.639-.799l-.08-2.558L.32 14.893c-.32-.24-.4-.64-.24-1.04l1.119-2.318-.96-2.398c-.16-.32 0-.799.24-.959L2.559 6.66l.24-2.478c0-.4.32-.72.72-.72l2.557-.4L7.514.905c.24-.32.64-.48.959-.32l2.478.8L13.189.105c.32-.16.72-.16 1.04.16l1.758 1.838 2.558-.08c.4 0 .719.24.799.64l.64 2.398L22.3 6.18c.32.16.56.56.48.96l-.48 2.557 1.52 2.078c.239.32.239.72 0 1.04l-1.6 1.998.4 2.558c.08.4-.16.719-.48.879l-2.397 1.039-.88 2.398c-.16.4-.48.56-.879.56l-2.558-.24-1.918 1.758c-.24.16-.4.24-.64.24zm-2.479-3.277c.16 0 .32.08.48.16l1.918 1.199 1.679-1.599c.16-.16.4-.24.64-.24l2.317.16.72-2.158c.08-.24.24-.4.48-.48l2.078-.879-.32-2.238c0-.24 0-.48.16-.64l1.439-1.758-1.36-1.839c-.16-.16-.16-.4-.16-.64l.48-2.237-2.078-1.04a.601.601 0 0 1-.4-.559l-.639-2.238-2.318.08c-.24 0-.48-.08-.64-.24L13.27 1.864 11.27 2.983c-.24.08-.48.16-.64.08l-2.158-.72-1.279 1.919c-.08.16-.32.32-.56.32l-2.238.399-.24 2.238c0 .24-.16.48-.32.56L1.999 9.137l.88 2.239c.08.24.08.48 0 .719l-.96 2.078 1.759 1.44c.16.159.32.399.32.639v2.238l2.238.48c.24.08.4.16.56.399l1.118 1.998 2.239-.64h.24z"/><path d="M11.83 19.369c-4.156 0-7.594-3.357-7.594-7.594a7.54 7.54 0 0 1 7.594-7.593 7.54 7.54 0 0 1 7.594 7.593c0 4.237-3.437 7.594-7.594 7.594zm0-13.988c-3.517 0-6.474 2.877-6.474 6.474a6.448 6.448 0 0 0 6.474 6.475 6.448 6.448 0 0 0 6.475-6.475c0-3.597-2.958-6.474-6.475-6.474z"/><path d="M9.432 15.932c-.08 0-.24 0-.32-.08a.726.726 0 0 1-.24-.56l.4-2.558-1.838-1.758c-.16-.16-.24-.4-.16-.56.08-.24.24-.32.48-.4l2.557-.399 1.12-2.238c.08-.16.32-.32.48-.32.239 0 .399.16.479.32l1.119 2.318 2.558.4c.24 0 .4.16.48.4.08.24 0 .399-.16.559l-1.84 1.758.4 2.558c0 .24-.08.4-.24.56-.16.16-.399.16-.559.08l-2.158-1.36-2.238 1.2c-.16.08-.24.08-.32.08zm-.4-4.956l1.2 1.199c.16.16.16.32.16.48l-.32 1.678 1.518-.8c.16-.08.32-.08.56 0l1.519.8-.32-1.678c0-.16 0-.4.16-.48l1.199-1.2-1.679-.239c-.16 0-.32-.16-.4-.32l-.799-1.518-.8 1.518c-.08.16-.239.32-.399.32z"/></svg>
