<svg xmlns="http://www.w3.org/2000/svg" height="22" width="22" viewBox="0 0 22 22"><path d="M21.366 16.517l-3.18-3.195c-.426-.427-.999-.662-1.61-.662a2.37 2.37 0 0 0-1.69.708l-1.238 1.243c-.962-.537-2.24-1.276-3.567-2.61C8.757 10.67 8.02 9.39 7.484 8.42l1.24-1.244c.92-.927.94-2.415.042-3.316L5.586.665A2.25 2.25 0 0 0 3.976 0c-.622 0-1.21.24-1.662.678C2.041.9.671 2.114.16 4.62c-.715 3.507.928 6.88 5.67 11.646C11.127 21.586 15.65 22 16.91 22c.262 0 .42-.016.462-.022 2.471-.29 3.355-1.392 4.002-2.197.838-1.043.834-2.415-.008-3.264zm-1.054 2.404c-.607.756-1.181 1.47-3.097 1.696-.001 0-.105.013-.304.013-1.127 0-5.188-.385-10.114-5.331C2.423 10.904.889 7.89 1.499 4.896c.445-2.185 1.627-3.114 1.673-3.15l.041-.03.036-.037a1.02 1.02 0 0 1 .727-.308c.247 0 .476.093.644.263L7.8 4.828c.366.367.347.985-.043 1.377l-1.4 1.406-.024.025c-.365.404-.322.95-.12 1.305.58 1.052 1.375 2.493 2.904 4.03 1.525 1.531 2.957 2.329 4.002 2.91.105.06.32.159.59.159.319 0 .612-.136.83-.383l1.315-1.32c.196-.197.454-.306.724-.306.248 0 .478.093.646.262l3.177 3.193c.403.407.237 1.03-.089 1.435zm0 0M13.328 3.36c1.173.136 2.554.85 3.518 1.818.974.978 1.686 2.38 1.815 3.57a.684.684 0 0 0 .752.608.684.684 0 0 0 .605-.756c-.163-1.505-1.009-3.188-2.206-4.392-1.188-1.192-2.845-2.04-4.328-2.21a.686.686 0 1 0-.156 1.363zm0 0M12.69 6.232c.635.073 1.513.546 2.088 1.124.58.583 1.052 1.473 1.12 2.118a.684.684 0 0 0 .753.607.684.684 0 0 0 .605-.755c-.119-1.1-.846-2.268-1.513-2.939-.662-.665-1.814-1.39-2.896-1.516a.685.685 0 0 0-.156 1.361zm0 0" fill="#bcbcbc"/></svg>