<svg xmlns="http://www.w3.org/2000/svg" xmlns:xlink="http://www.w3.org/1999/xlink" height="28" width="28" viewBox="0 0 28 28" id="Слой_1"><style id="style2">.st0{clip-path:url(#SVGID_2_)}</style><g transform="matrix(.9344 0 0 .93645 -.032 0)" id="g18"><g id="g14"><defs id="defs5"><path id="SVGID_1_" d="M0 0h30v29.9H0z"/></defs><clipPath id="SVGID_2_"><use height="100%" width="100%" id="use7" xlink:href="#SVGID_1_" overflow="visible"/></clipPath><path id="path10" d="M27.8 22.7L25 19.5l-.1-.1-5.2-3.1-.7-2c-.1-.2-.2-.3-.4-.3s-.4 0-.5.1l-1.5 1.5-9.1-9.4L5.7 3l-.2-.2-2.9-1.5c-.2 0-.5 0-.6.1L.2 3.3c-.2.1-.2.4-.1.6l1.5 2.9c0 .1.1.2.2.2L5 8.8l9.3 9.3-1.5 1.5c-.1.1-.2.3-.1.5 0 .2.2.3.3.4l2 .7 3.2 5.3.1.1 3.1 2.7c.6.5 1.4.8 2.1.8.8 0 1.7-.3 2.3-.9l1.8-1.8c1.2-1.5 1.3-3.5.2-4.7zM5.6 8l-.1-.1-3.1-1.7-1.3-2.5 1.3-1.3 2.4 1.2 1.8 3.2.1.1 9.3 9.3-1 1.1zm21.3 18.4l-1.8 1.8c-.8.8-2.2.9-3.1.1l-3-2.6-3.2-5.3c-.1-.1-.2-.2-.3-.2l-1.4-.5 1.4-1.4 1.6-1.6 1.2-1.2.5 1.4c0 .1.1.2.2.3l5.3 3.2 2.7 3.1c.8.7.7 2.1-.1 2.9zm0 0" class="st0"/><path id="path12" d="M29.8 13.2L28 11.4c-.2-.2-.5-.2-.7 0l-.4.4-1.8-1.8.4-.4c.2-.2.2-.5 0-.7l-4.7-4.7c-.1-.1-2.6-2.6-4.1-3.4-1.6-.8-3.2-.8-3.2-.8-.2 0-.4.1-.5.3-.1.2 0 .4.1.6 0 0 2.1 2.1 2.8 3.5.7 1.3.7 3.4.7 3.4 0 .1.1.3.2.4l.4.4-2.9 2.9c-.2.2-.2.5 0 .7.2.2.5.2.7 0l2.9-2.9 1.5 1.5-2.9 2.9c-.2.2-.2.5 0 .7.1.1.2.2.4.2s.3-.1.4-.2l2.9-2.9 1.5 1.5c.2.2.5.2.7 0l.4-.4 1.8 1.8-.6.3c-.2.2-.2.5 0 .7l1.8 1.8c.1.1.2.2.4.2.1 0 .3-.1.4-.2l3.3-3.3c.1-.1.2-.2.2-.4l-.3-.3zm-3.6 2.9L25.1 15l.4-.4c.2-.2.2-.5 0-.7L23 11.4c-.2-.2-.5-.2-.7 0l-.4.4-4.2-4.2c0-.6-.1-2.4-.8-3.7-.4-.8-1.3-1.9-2-2.7.4.1.9.2 1.4.5 1.2.7 3.7 3.1 3.7 3.2l4.4 4.4-.4.3c-.2.2-.2.5 0 .7l2.5 2.5c.2.2.5.2.7 0l.4-.4 1.1 1.1zm0 0" class="st0"/></g><path id="path16" d="M12.5 18.2c-.2-.2-.5-.2-.7 0l-8.1 8.1c-.4.4-1.1.4-1.5 0-.1-.2-.2-.5-.2-.8 0-.3.1-.5.3-.7l8-8c.2-.2.2-.5 0-.7-.2-.2-.5-.2-.7 0l-8 8c-.4.4-.6.9-.6 1.5 0 .5.2 1.1.6 1.5.4.4.9.6 1.5.6.5 0 1.1-.2 1.5-.6l8.1-8.1c0-.3 0-.6-.2-.8zm0 0"/></g></svg>