<svg xmlns="http://www.w3.org/2000/svg" viewBox="0 0 26 26"><path d="M14.202 14.33c-.416-.243-.996-.243-1.467-.243H11.19v3.186h1.419c.525 0 1.194.037 1.648-.281.415-.28.651-.829.651-1.353-.001-.485-.291-1.067-.706-1.309zm-.583-2.721c.344-.262.525-.729.525-1.16 0-.467-.217-.915-.615-1.158-.417-.242-1.177-.186-1.666-.186h-.673v2.803h.891c.507 0 1.104.037 1.538-.299zM21.231 0H4.371a4.57 4.57 0 0 0-4.57 4.57v16.86A4.57 4.57 0 0 0 4.371 26H21.23a4.571 4.571 0 0 0 4.57-4.57V4.57A4.57 4.57 0 0 0 21.231 0zm-7.725 19.644H8.194V6.825h5.804c1.681 0 3.232 1.07 3.232 2.958 0 1.457-.815 2.454-1.851 2.765v.037c1.538.319 2.637 1.154 2.637 3.17 0 1.868-1.27 3.889-4.51 3.889zm0 0" fill="#fff"/></svg>