<svg xmlns="http://www.w3.org/2000/svg" height="121.299" width="158" viewBox="0 0 158 121.29898" data-name="Слой 1"><title>Спрайт</title><path d="M118.473 40.19c-4.424-.27-5.206-5.773-2.697-9.333a10.79 10.79 0 0 1 7.04-3.965c.404-6.231-.917-16.185-7.337-19.448-8.928-4.559-16.022 17.91-22.091 38.572-4.775 16.184-8.875 31.37-13.11 31.316H65.174c-4.531 0-6.5-1.295-4.1-5.61l11.76-3.372 1.35-3.237-3.102-11.248 4.45-7.66 11.518-3.13 1.672-2.94-3.237-11.652 8.632-15.294c6.042-10.79 16.94-18.612 27.108-8.497 5.125 5.098 7.256 14.404 6.77 22.173a7.094 7.094 0 0 1 6.043 6.689 11.248 11.248 0 0 1-6.285 9.522c-.135 0-.297 0-.135.135 22.874 2.886 13.81 26.757-3.965 32.988-18.72 6.69-21.579-17.479-6.662-18.045 2.481 0 6.177 1.025 6.042 4.693a2.293 2.293 0 0 1-4.397 1.16c-5.691-8.604-14.35 8.794-.35 8.092 10.195-.404 19.07-17.02 10.195-23.332a20.689 20.689 0 0 0-9.225-3.264c-1.267-.323-1.726-1.726 1.106-2.697a16.184 16.184 0 0 0 5.8-2.967 6.932 6.932 0 0 0 2.913-5.638 5.098 5.098 0 0 0-1.51-4.073 14.512 14.512 0 0 1-2.698 6.986 7.418 7.418 0 0 1-6.393 2.94zm4.02-10.601c-2.94 1.079-4.694 2.886-4.478 5.395 0 1.375 1.996.404 3.263-1.565a10.439 10.439 0 0 0 1.214-3.83z" fill="#fff" fill-rule="evenodd"/><path d="M118.689 39.003c-3.588-.27-3.722-4.613-1.753-7.472a10.196 10.196 0 0 1 7.148-3.75 30.561 30.561 0 0 0-2.698-16.183 13.487 13.487 0 0 0-5.394-5.395c-9.468-4.532-16.616 16.184-22.604 36.036-5.314 17.156-9.765 33.825-13.217 33.825h-16.4c-2.374-.27-3.48-.674-1.78-3.668l.647-1.16 9.468-2.697 2.104-3.048-2.698-9.954 5.395-9.791 9.414-2.697 1.996-3.911-2.563-9.225 9.225-16.346c5.53-9.468 15.618-17.776 25.274-8.254 5.395 5.394 7.04 14.646 6.447 22.415a6.177 6.177 0 0 1 6.123 5.691 10.6 10.6 0 0 1-6.555 8.955c-1.294.783-.674 1.7 0 1.754 22.2 1.807 14.647 24.276-2.886 30.723-17.532 6.446-18.99-15.86-6.177-15.591 2.482 0 4.613 1.133 4.64 3.156.027 2.023-1.457 2.13-2.32.647-7.12-10.007-17.64 10.17-1.483 10.223 7.175 0 14.43-8.092 15.186-15.699.593-5.88-2.698-11.571-12.57-12.974-.593 0-.863-.189-.405-.35a19.394 19.394 0 0 0 6.69-3.4 8.092 8.092 0 0 0 3.318-6.392 5.557 5.557 0 0 0-3.48-5.988 16.4 16.4 0 0 1-2.697 7.93 5.934 5.934 0 0 1-5.395 2.698zm5.395-11.033c-5.395 1.025-7.418 4.397-7.121 6.825.377 3.29 3.965 1.86 5.583-.998a16.184 16.184 0 0 0 1.376-5.827z" fill="#fff" fill-rule="evenodd"/><path d="M77.069 45.773l-7.634 2.13 2.131 7.661-1.672 2.94-2.698-9.98-3.21.89a2.4 2.4 0 0 1-2.94-1.672l-.89-3.21-12.138 3.345.89 3.237a2.4 2.4 0 0 1-1.672 2.94l-3.237.89 3.345 12.084.647 2.293.35 1.268a1.996 1.996 0 0 0 2.455 1.375l1.268-.35 2.293-.648 10.007-2.697-1.645 2.94-1.673.459-6.042 1.672-2.292.647-3.21.89a2.4 2.4 0 0 1-2.94-1.672l-.89-3.156-.648-2.293-3.345-12.084-12.003 3.291-2.293.647-3.21.89a2.4 2.4 0 0 1-2.94-1.672l-.89-3.21-.647-2.292-4.936-17.641a2.4 2.4 0 0 1 1.672-2.94l17.614-4.882-4.882-17.641a2.4 2.4 0 0 1 1.672-2.94L53.952.862a2.4 2.4 0 0 1 2.94 1.753l4.883 17.506L79.36 15.24a2.4 2.4 0 0 1 2.94 1.672l3.642 13.11-1.672 2.94-3.75-13.487a1.996 1.996 0 0 0-2.454-1.376l-15.645 4.343.89 3.237a2.4 2.4 0 0 1-1.672 2.94l-3.237.89 3.345 12.084 3.21-.89a2.4 2.4 0 0 1 2.94 1.672l.89 3.21 9.926-2.697zM26.682 57.291l2.293-.648L41.059 53.3l-.89-3.237a2.4 2.4 0 0 1 1.672-2.94l3.237-.89-3.345-12.085-3.21.837a2.4 2.4 0 0 1-2.94-1.673l-.89-3.21-15.806 4.397a1.996 1.996 0 0 0-1.376 2.455l4.37 15.698.647 2.293.35 1.268a1.996 1.996 0 0 0 2.455 1.375l1.268-.35zM44.026 33.5l3.345 12.084 11.976-3.372-3.345-12.084-12.084 3.345zm-12.03-21.983l4.37 15.698 3.21-.89a2.4 2.4 0 0 1 2.94 1.672l.89 3.21 12.084-3.344-.89-3.237a2.4 2.4 0 0 1 1.672-2.94l3.075-.944-4.343-15.645A1.996 1.996 0 0 0 52.55 3.72L33.264 9.116a1.996 1.996 0 0 0-1.376 2.455zm4.99 18.072l.35 1.268a1.996 1.996 0 0 0 2.455 1.375l1.268-.35-.35-1.268a1.996 1.996 0 0 0-2.455-1.376zm20.77-2.32l1.321-.377a1.996 1.996 0 0 0 1.376-2.455l-.378-1.322-1.321.378a1.996 1.996 0 0 0-1.376 2.454zM43.352 52.732l1.321-.377A1.996 1.996 0 0 0 46.05 49.9l-.35-1.43-1.322.378A1.996 1.996 0 0 0 43 51.303l.378 1.321zm19.016-8.766l.35 1.268a1.996 1.996 0 0 0 2.455 1.375l1.268-.35-.35-1.268a1.996 1.996 0 0 0-2.455-1.376z" fill="#fff" fill-rule="evenodd"/><path d="M83.785 43.885l-2.293.647-4.423 1.241 1.645-2.94 2.131-.594 2.293-.647 1.321-.378a1.996 1.996 0 0 0 1.376-2.454l-.377-1.322-.594-2.454-.593-2.158 1.672-2.94 1.24 4.477.648 2.293.89 3.237a2.4 2.4 0 0 1-1.672 3.183l-3.237.89zM71.54 55.537l1.295 4.397.647 2.293.89 3.237a2.4 2.4 0 0 1-1.672 2.94l-3.237.89-2.293.647-4.37 1.214 1.646-2.94 2.05-.566L68.788 67l1.322-.377a1.996 1.996 0 0 0 1.375-2.455l-.377-1.322-.648-2.292-.593-2.104z" fill="#fff" fill-rule="evenodd"/><path d="M61.505 46.825l-.917-3.264-13.487 3.75.917 3.263a2.374 2.374 0 0 1-1.645 2.913l-3.21.918 4.72 16.993a2.239 2.239 0 0 0 2.698 1.537l13.325-3.695-.567 1.025-13.19 3.668a2.374 2.374 0 0 1-2.913-1.645l-4.91-17.668-17.72 4.883a2.374 2.374 0 0 1-3.022-1.646l-5.907-21.714a2.374 2.374 0 0 1 1.645-2.913l17.749-4.909-4.99-17.614a2.374 2.374 0 0 1 1.645-2.913L53.44 1.806a2.374 2.374 0 0 1 2.913 1.645l4.882 17.587 17.614-4.936a2.374 2.374 0 0 1 2.913 1.645l3.642 13.137-.567 1.025-3.695-13.11a2.239 2.239 0 0 0-2.698-1.537l-16.993 4.585.917 3.345a2.374 2.374 0 0 1-1.645 2.913l-3.318.917 3.75 13.487 3.317-.917a2.374 2.374 0 0 1 2.913 1.645l.917 3.264 9.846-2.697-.567 1.025-9.063 2.508 2.509 9.09-.567 1.026-2.697-9.9-3.345.917a2.374 2.374 0 0 1-2.913-1.645zm-15.213.701l-2.697.729a2.239 2.239 0 0 0-1.538 2.697l.728 2.697 2.698-.728a2.239 2.239 0 0 0 1.537-2.697zm-10.547-19.42l3.291-.918a2.374 2.374 0 0 1 2.913 1.646l.944 3.452 13.487-3.75-.917-3.344a2.374 2.374 0 0 1 1.645-2.913l3.318-.917-4.666-17.02a2.239 2.239 0 0 0-2.698-1.538L32.643 8.47a2.239 2.239 0 0 0-1.537 2.697l4.693 16.912zm7.418 4.882l3.75 13.486 13.486-3.749-3.75-13.487zm-20.85 23.979a2.239 2.239 0 0 0 2.697 1.538l17.02-4.64-.917-3.264a2.374 2.374 0 0 1 1.645-2.913l3.291-.917-3.75-13.487-3.29.917a2.374 2.374 0 0 1-2.913-1.645L35.07 29.13l-16.859 4.694a2.239 2.239 0 0 0-1.537 2.697l5.664 20.42zm13.648-28.08l.755 2.698a2.239 2.239 0 0 0 2.698 1.537l2.697-.728-.755-2.697a2.239 2.239 0 0 0-2.698-1.538zm25.436 14.431l.728 2.698a2.239 2.239 0 0 0 2.698 1.537l2.697-.728-.728-2.697a2.239 2.239 0 0 0-2.698-1.538zm-.728-21.282l-2.698.729a2.239 2.239 0 0 0-1.537 2.697l.755 2.697 2.698-.728a2.239 2.239 0 0 0 1.537-2.697z" fill="#fff" fill-rule="evenodd"/><path d="M63.825 69.267l7.067-1.915a2.239 2.239 0 0 0 1.537-2.698l-1.969-7.12.567-1.026 2.373 8.578A2.374 2.374 0 0 1 71.755 68l-8.524 2.374.567-1.025zm13.783-24.438l.567-1.025 7.094-1.97a2.239 2.239 0 0 0 1.537-2.696l-1.969-7.148.567-1.025 2.373 8.604a2.374 2.374 0 0 1-1.645 2.913zM18.887 44.37l-2.158-7.903a2.239 2.239 0 0 1 1.564-2.697l7.93-2.158.594-1.025-9.387 2.562a2.374 2.374 0 0 0-1.672 2.914l2.535 9.332zm13.81-24.276l.594-.998-2.158-7.903a2.239 2.239 0 0 1 1.564-2.697l7.769-2.212.674-.971-9.414 2.562a2.374 2.374 0 0 0-1.645 2.832zM18.644 118.17h-6.258v-1.349h-1.133v-17.64a10.25 10.25 0 0 0-2.832 4.666 23.386 23.386 0 0 0-.863 5.233q-.162 2.4-.162 5.718v3.399H1.138v-1.349H.005v-3.641a55.188 55.188 0 0 1 .54-8.497 18.881 18.881 0 0 1 2.346-6.986 14.242 14.242 0 0 1 6.016-5.206h8.631v1.349h1.133v24.276zm-1.888-1.969V93.139h-7.66a13.487 13.487 0 0 0-5.962 5.394 20.338 20.338 0 0 0-2.05 7.418 66.463 66.463 0 0 0-.323 7.256v3.02H5.4v-2.696a56.159 56.159 0 0 1 .405-7.66 15.995 15.995 0 0 1 1.753-5.692 15.24 15.24 0 0 1 4.343-4.613v20.716zm22.226-4.505a6.635 6.635 0 0 1-1.78 5.395 10.034 10.034 0 0 1-6.312 1.484q-5.934 0-7.39-2.698a6.447 6.447 0 0 1-1.889-5.394v-8.092a6.609 6.609 0 0 1 1.78-5.395 10.061 10.061 0 0 1 6.285-1.646q5.88 0 7.337 2.698a6.582 6.582 0 0 1 1.888 5.394v4.775h-10.33v4.154a3.911 3.911 0 0 0 0 .755 5.179 5.179 0 0 0 1.105.08 2.455 2.455 0 0 0 1.915-.593 2.697 2.697 0 0 0 .378-1.618V109h5.8v1.51H38.9v1.268zm-1.888-1.996h-4.262a8.74 8.74 0 0 1-.297 2.887q-.593 1.348-2.697 1.348-3.075 0-3.075-2.832v-4.801h10.412v-4.154a6.258 6.258 0 0 0-1.51-4.882 9.44 9.44 0 0 0-5.989-1.268 9.44 9.44 0 0 0-5.826 1.295 6.15 6.15 0 0 0-1.538 4.855v8.092a6.204 6.204 0 0 0 1.51 4.882 9.549 9.549 0 0 0 5.854 1.295 8.659 8.659 0 0 0 6.096-1.51 8.092 8.092 0 0 0 1.241-5.395zm-4.289-5.88v-2.239a2.697 2.697 0 0 0-3.129-2.994q-3.075 0-3.075 2.967v2.24zm-.755-.62v-1.619a5.395 5.395 0 0 0 0-.89 4.936 4.936 0 0 0-1.08 0 2.428 2.428 0 0 0-1.968.62 2.94 2.94 0 0 0-.378 1.727v.27zm26.973 14.997h-5.637v-1.349h-1.133v-8.334h-3.507v9.656h-5.745v-1.349h-1.133V95.647h5.746v1.376h1.132v6.123h3.507v-7.499h5.745v1.376h1.133v21.201zm-1.888-1.97v-19.96h-4.127v7.472h-6.123v-7.471h-4.262V116.2h4.262v-9.657h6.123v9.657zm21.58-4.18a6.042 6.042 0 0 1-1.808 5.017 10.358 10.358 0 0 1-6.231 1.43q-5.395 0-7.094-2.886a5.395 5.395 0 0 1-1.78-4.37 14.485 14.485 0 0 1 .162-2.293h5.394v1.349h1.133a23.062 23.062 0 0 0 0 2.697 5.934 5.934 0 0 0 1.08 0q2.292 0 2.292-1.996v-1.726a2.697 2.697 0 0 0 0-.567 15.294 15.294 0 0 0-3.21-.162v-1.348h-1.214v-3.776a13.487 13.487 0 0 0 2.913-.162 1.834 1.834 0 0 0 1.214-1.996v-.324a1.78 1.78 0 0 1 0-.27h-.863q-1.591 0-1.915.81a6.474 6.474 0 0 0-.162 1.968h-5.125a6.393 6.393 0 0 1-.162-1.348h-.97a6.393 6.393 0 0 1-.163-1.349 4.774 4.774 0 0 1 1.888-4.262 10.088 10.088 0 0 1 5.395-1.133q5.746 0 7.013 2.698a5.017 5.017 0 0 1 1.727 4.208 4.505 4.505 0 0 1-2.24 3.857 4.774 4.774 0 0 1 .972 1.214 5.718 5.718 0 0 1 1.78 4.72zm-1.889-1.349a5.8 5.8 0 0 0-.81-3.344 7.553 7.553 0 0 0-3.182-2.24q3.426-1.941 3.426-4.234a4.424 4.424 0 0 0-1.619-4.02 10.412 10.412 0 0 0-5.179-.89 9.684 9.684 0 0 0-4.963.945 4.262 4.262 0 0 0-1.618 3.857v.728h3.722a3.075 3.075 0 0 1 .593-2.104 2.913 2.913 0 0 1 2.24-.674q2.697 0 2.697 2.697 0 2.698-3.21 2.698h-.917v2.535h1.079q2.373 0 2.994 1.376a9.576 9.576 0 0 1 .296 3.048q0 2.697-3.048 2.697-2.13 0-2.697-1.321a7.876 7.876 0 0 1-.324-2.887h-3.668v1.673a4.612 4.612 0 0 0 1.78 4.127 9.252 9.252 0 0 0 5.206 1.133 9.791 9.791 0 0 0 5.745-1.214 5.557 5.557 0 0 0 1.565-4.613zm21.066 7.526h-5.394v-1.349h-.783a7.202 7.202 0 0 1-4.315 1.727 4.882 4.882 0 0 1-4.883-2.401 4.612 4.612 0 0 1-1.618-3.911v-3.21a5.152 5.152 0 0 1 1.133-3.56 8.524 8.524 0 0 1 3.668-2.104h-3.102v-1.35h-1.133v-1.375a4.505 4.505 0 0 1 2.158-4.208 10.466 10.466 0 0 1 5.395-1.106q5.664 0 7.121 2.698a5.395 5.395 0 0 1 1.78 4.64v15.401zm-6.932-16.4v-.836a1.268 1.268 0 0 1 0-.27 4.72 4.72 0 0 0-1.052 0 2.32 2.32 0 0 0-1.78.513 2.697 2.697 0 0 0-.405 1.726l3.291-.998zm5.044 14.43V101.42a5.017 5.017 0 0 0-1.591-4.396 9.603 9.603 0 0 0-5.395-1.106 10.142 10.142 0 0 0-4.963.89 3.992 3.992 0 0 0-1.78 3.776v.756h3.587q0-2.833 2.967-2.833 1.996 0 2.698 1.106a5.584 5.584 0 0 1 .377 2.536q-1.753.485-5.179 1.591a10.412 10.412 0 0 0-3.722 1.861A4.45 4.45 0 0 0 81.789 109v3.156q0 4.316 4.64 4.316a4.586 4.586 0 0 0 1.213-.135 17.29 17.29 0 0 0 4.478-3.13v2.914zm-4.289-5.178v-6.743q-1.915.809-3.048 1.375a6.986 6.986 0 0 0-2.158 1.7 3.83 3.83 0 0 0-.7 2.4v1.295q0 2.832 2.966 2.832 2.967 0 2.94-2.859zm-.755 0v-3.911a8.092 8.092 0 0 0-2.454 1.564 3.426 3.426 0 0 0-.837 2.428v1.295a4.478 4.478 0 0 0 0 .809 4.936 4.936 0 0 0 .998 0 2.347 2.347 0 0 0 1.835-.567 2.697 2.697 0 0 0 .377-1.672zm27.136 1.268a5.61 5.61 0 0 1-1.97 4.909 11.302 11.302 0 0 1-6.123 1.214q-6.123 0-7.498-2.698a5.772 5.772 0 0 1-1.753-4.747v-11.06a16.4 16.4 0 0 1 .458-4.504 4.64 4.64 0 0 1 3.29-3.263 19.502 19.502 0 0 1 4.964-.459 20.931 20.931 0 0 0 5.745-.728l.863 1.43h.243l1.754 2.697a17.64 17.64 0 0 1-6.798 1.186q-3.156 0-3.668 1.403a12.866 12.866 0 0 1 2.697-.324q4.667 0 5.961 2.455a5.88 5.88 0 0 1 1.861 5.26v7.364zm-1.889-1.349v-7.364a5.961 5.961 0 0 0-1.133-4.18 6.743 6.743 0 0 0-4.8-1.295 10.223 10.223 0 0 0-4.667 1.213v-2.076q0-2.833 4.531-2.833a15.16 15.16 0 0 0 5.854-.863l-1.133-1.807a20.014 20.014 0 0 1-5.395.593 20.85 20.85 0 0 0-4.532.351 4.532 4.532 0 0 0-3.29 4.424 26.461 26.461 0 0 0 0 2.697v11.032a5.071 5.071 0 0 0 1.699 4.505 11.086 11.086 0 0 0 5.664.998 11.086 11.086 0 0 0 5.665-.998 5.125 5.125 0 0 0 1.672-4.505zm-4.37.324v-8.092q0-2.698-2.966-2.698-2.968 0-2.995 2.698v8.092q0 2.697 2.995 2.697 2.994 0 2.967-2.697zm-.755 0v-8.443a1.24 1.24 0 0 1 0-.27 3.614 3.614 0 0 0-.782 0h-.404a1.672 1.672 0 0 0-2.077 1.97v8.442a1.268 1.268 0 0 1 0 .27 3.587 3.587 0 0 0 .782 0h.458a2.077 2.077 0 0 0 1.673-.513 2.185 2.185 0 0 0 .377-1.456zm26.731.377a6.635 6.635 0 0 1-1.78 5.395 10.034 10.034 0 0 1-6.312 1.484q-5.934 0-7.39-2.698a6.447 6.447 0 0 1-1.889-5.394v-8.092a6.582 6.582 0 0 1 1.78-5.395 10.061 10.061 0 0 1 6.34-1.51q5.88 0 7.336 2.697a6.582 6.582 0 0 1 1.888 5.394v8.092zm-1.888-1.348v-8.092a6.258 6.258 0 0 0-1.51-4.883 9.44 9.44 0 0 0-5.827-1.267 9.44 9.44 0 0 0-5.826 1.294 6.15 6.15 0 0 0-1.376 4.748v8.092a6.204 6.204 0 0 0 1.51 4.882 9.549 9.549 0 0 0 5.854 1.295 9.44 9.44 0 0 0 5.826-1.295 6.258 6.258 0 0 0 1.51-4.882zm-4.37.512v-9.225q0-2.832-2.967-2.832t-2.994 2.832v9.252q0 2.832 2.994 2.832t2.967-2.832zm-.755 0v-9.225a3.884 3.884 0 0 0 0-.755 4.18 4.18 0 0 0-.998 0 2.32 2.32 0 0 0-1.888.593 2.697 2.697 0 0 0-.378 1.619v9.252a3.911 3.911 0 0 0 0 .755 4.747 4.747 0 0 0 1.052 0 2.32 2.32 0 0 0 1.888-.593 2.86 2.86 0 0 0 .324-1.619zm26.974.27a13.325 13.325 0 0 1-.62 5.098q-1.134 2.239-4.964 2.239a5.395 5.395 0 0 1-2.697-.62 10.79 10.79 0 0 1-2.077-1.62v5.072h-5.638v-1.349h-1.133V95.674h5.395v1.349h.917a7.822 7.822 0 0 1 4.64-1.619 4.478 4.478 0 0 1 4.45 2.212 6.662 6.662 0 0 1 1.888 5.638v7.93zm-1.889-1.349v-7.903q0-4.559-2.13-5.395a5.961 5.961 0 0 0-2.347-.377 6.662 6.662 0 0 0-1.51.135 15.213 15.213 0 0 0-4.802 3.048v-3.021h-3.695v23.062h4.261v-6.123q1.241 1.214 1.889 1.726a7.256 7.256 0 0 0 2.211 1.376 4.774 4.774 0 0 0 1.43.162 5.61 5.61 0 0 0 3.426-.81 4.02 4.02 0 0 0 1.294-2.697 27.81 27.81 0 0 0 0-3.129zm-4.423 1.295v-9.657q0-2.832-2.967-2.832t-2.833 2.832v9.657q0 2.832 2.968 2.832 2.967 0 2.967-2.832zm-.755 0v-9.657a3.911 3.911 0 0 0 0-.755 4.18 4.18 0 0 0-.998 0 2.32 2.32 0 0 0-1.78.513 2.697 2.697 0 0 0-.405 1.726v9.791a3.884 3.884 0 0 0 0 .62 4.747 4.747 0 0 0 1.052 0 2.32 2.32 0 0 0 1.888-.593 2.86 2.86 0 0 0 .404-1.645z" fill="#fff" fill-rule="evenodd"/></svg>