<svg xmlns="http://www.w3.org/2000/svg" viewBox="0 0 285 65.25582" height="65.256" width="285" data-name="Слой 1"><path d="M87.582 33.96c-3.745-.237-4.383-4.858-2.266-7.863 1.045-1.48 2.958-2.891 5.917-3.393.332-5.266-.78-13.571-6.182-16.408-7.539-3.847-13.51 15.105-18.64 32.537-4.03 13.693-7.464 26.463-11.067 26.423h-12.75c-3.569 0-5.483-1.086-3.454-4.75l9.948-2.769 1.126-2.714-2.632-9.5 3.657-6.487 9.805-2.714 1.418-2.49L59.748 24l7.267-12.893C72.098 2.07 81.3-4.574 89.875 3.928c4.337 4.302 6.108 12.16 5.707 18.708 2.715.563 5.076 2.633 5.096 5.639 0 3.555-2.415 6.412-5.286 8.027-.122.068-.25.102-.115.115 19.291 2.443 11.644 22.562-3.339 27.82-15.796 5.64-18.239-14.744-5.632-15.226 2.09-.081 5.219.876 5.103 3.956-.06 1.758-2.171 3.19-3.698.97-4.804-7.253-12.105 7.41-.292 6.942 8.598-.346 16.089-14.358 8.604-19.678-3.216-2.293-5.428-2.165-7.776-2.762-1.079-.278-1.466-1.459.93-2.164a13.714 13.714 0 0 0 4.885-2.497c1.71-1.446 2.457-2.87 2.457-4.75 0-1.656-.597-2.993-1.262-3.434a12.248 12.248 0 0 1-2.28 5.89 6.256 6.256 0 0 1-5.395 2.477zm3.393-8.956c-2.47.903-3.956 2.436-3.773 4.451.102 1.16 1.676.346 2.748-1.31a8.821 8.821 0 0 0 1.005-3.134z" fill="#4d4d4d" fill-rule="evenodd"/><path d="M87.657 32.957c-3.02-.21-3.142-3.895-1.513-6.318 1.099-1.608 3.141-2.714 6.025-3.148.42-5.381-.624-10.49-2.375-13.673a11.413 11.413 0 0 0-4.458-4.52C77.343 1.473 71.331 18.87 66.262 35.692c-4.356 14.474-8.061 28.5-11.026 28.5H43.7c-.828 0-1.601 0-2.205-.055-2.036-.217-2.925-.563-1.5-3.094l.55-.97 7.993-2.22 1.778-2.578-2.334-8.366 4.655-8.258 7.946-2.206 1.69-3.304-2.159-7.77 7.77-13.794C72.424 3.52 81.02-3.502 89.082 4.559c4.519 4.52 5.937 12.357 5.428 18.905 2.504.312 5.103 1.757 5.164 4.797.075 3.529-2.823 6.222-5.523 7.56-1.093.678-.564 1.43.06 1.485 18.722 1.534 12.364 20.452-2.429 25.92-15.09 5.43-16.102-13.4-5.286-13.183 2.09.04 3.902.956 3.923 2.666 0 1.554-1.222 1.805-1.961.557-6.006-8.435-14.874 8.59-1.249 8.624 6.046 0 12.18-6.826 12.811-13.252.489-4.96-2.273-9.764-10.613-10.945-.488-.068-.726-.156-.332-.305 1.622-.625 3.284-.964 5.646-2.87a6.9 6.9 0 0 0 2.788-5.43c0-1.655-.414-4.294-3.033-5.027-.332 2.551-.956 5.103-2.239 6.69-1.147 1.412-2.578 2.389-4.587 2.179zm4.519-9.303c-4.458.855-6.25 3.711-6.012 5.754.319 2.782 3.338 1.58 4.702-.848a13.693 13.693 0 0 0 1.31-4.906z" fill="#ffd500" fill-rule="evenodd"/><path d="M52.637 38.65L46.19 40.44l1.798 6.473-1.405 2.49-2.34-8.427-2.715.747a2.036 2.036 0 0 1-2.484-1.405l-.746-2.714-10.178 2.823.76 2.714a2.036 2.036 0 0 1-1.398 2.497l-2.714.76 2.822 10.178.516 1.954.299 1.08a1.69 1.69 0 0 0 2.096 1.2l1.08-.298 1.94-.536 8.448-2.348-1.425 2.477-1.418.393-5.09 1.425-1.94.536-2.714.746a2.036 2.036 0 0 1-2.484-1.404l-.746-2.714-.53-1.914-2.829-10.178-10.178 2.823-1.94.536-2.715.746a2.036 2.036 0 0 1-2.477-1.39l-.767-2.715-.536-1.94L.07 30.167a2.036 2.036 0 0 1 1.405-2.484l14.867-4.125-4.119-14.874A2.036 2.036 0 0 1 13.627 6.2L33.142.773a2.036 2.036 0 0 1 2.477 1.438l4.112 14.834 14.833-4.112a2.036 2.036 0 0 1 2.483 1.404l3.067 11.054-1.404 2.47-3.155-11.4a1.69 1.69 0 0 0-2.07-1.174l-13.211 3.685.76 2.714a2.036 2.036 0 0 1-1.405 2.483l-2.714.76 2.822 10.179 2.715-.747a2.036 2.036 0 0 1 2.483 1.405l.747 2.714 8.353-2.34zm-42.491 9.744l1.94-.536 10.179-2.823-.76-2.714a2.036 2.036 0 0 1 1.398-2.518l2.714-.76-2.823-10.178-2.714.746a2.036 2.036 0 0 1-2.47-1.411l-.746-2.714-13.232 3.691a1.69 1.69 0 0 0-1.174 2.07l3.678 13.252.536 1.94.298 1.08a1.69 1.69 0 0 0 2.07 1.173zm14.616-20.079l2.823 10.179 10.178-2.823-2.823-10.178zM14.584 9.764l3.704 13.252 2.715-.747a2.036 2.036 0 0 1 2.483 1.405l.747 2.714 10.178-2.822-.76-2.715a2.036 2.036 0 0 1 1.404-2.483l2.715-.76-3.644-13.252a1.69 1.69 0 0 0-2.07-1.174L15.771 7.694a1.69 1.69 0 0 0-1.174 2.07zm4.247 15.2l.299 1.078a1.69 1.69 0 0 0 2.07 1.174l1.078-.298-.298-1.08a1.69 1.69 0 0 0-2.07-1.173zm17.52-1.955l1.12-.312a1.69 1.69 0 0 0 1.174-2.07l-.312-1.12-1.12.313a1.69 1.69 0 0 0-1.174 2.07zM24.2 44.485l1.12-.312a1.69 1.69 0 0 0 1.173-2.07l-.312-1.12-1.106.313a1.69 1.69 0 0 0-1.174 2.07l.312 1.12zm16.054-7.403l.299 1.093a1.69 1.69 0 0 0 2.07 1.174l1.078-.299-.305-1.092a1.69 1.69 0 0 0-2.036-1.174z" fill="#4d4d4d" fill-rule="evenodd"/><path d="M58.323 37.075l-1.94.537-3.746 1.038 1.398-2.51 1.798-.503 1.94-.536 1.12-.312a1.69 1.69 0 0 0 1.174-2.043l-.312-1.12-.536-1.94-.51-1.825 1.405-2.49 1.045 3.772.557 1.948.76 2.714a2.036 2.036 0 0 1-1.439 2.51zm-10.341 9.833l1.031 3.718.536 1.94.76 2.715a2.036 2.036 0 0 1-1.404 2.484l-2.714.76-1.941.536-3.678 1.017 1.398-2.483 1.717-.42 1.94-.537 1.12-.312a1.69 1.69 0 0 0 1.174-2.07l-.312-1.153-.536-1.94-.489-1.765z" fill="#4d4d4d" fill-rule="evenodd"/><path d="M39.507 39.532l-.76-2.714-11.4 3.162.767 2.755a2.036 2.036 0 0 1-1.391 2.463l-2.782.773 3.983 14.345a1.886 1.886 0 0 0 2.314 1.31l11.237-3.115-.482.855-11.17 3.067a2.036 2.036 0 0 1-2.462-1.391l-4.133-14.928-14.84 4.153a2.036 2.036 0 0 1-2.463-1.392L.843 30.555a2.036 2.036 0 0 1 1.39-2.464l14.868-4.125-4.105-14.833a2.036 2.036 0 0 1 1.39-2.463l18.322-5.083a2.036 2.036 0 0 1 2.463 1.391l4.112 14.84 14.86-4.119a2.036 2.036 0 0 1 2.457 1.405l3.08 11.054-.482.861-3.114-11.196a1.886 1.886 0 0 0-2.314-1.31l-14.297 3.984.787 2.83a2.036 2.036 0 0 1-1.391 2.462l-2.802.754 3.162 11.406 2.809-.773a2.036 2.036 0 0 1 2.463 1.39l.76 2.755 8.312-2.307-.482.855-7.66 2.117 2.13 7.688-.482.862-2.327-8.36-2.782.774a2.036 2.036 0 0 1-2.463-1.418zm-12.838.597l-2.233.617a1.886 1.886 0 0 0-1.31 2.314l.611 2.199 2.233-.618a1.886 1.886 0 0 0 1.31-2.314zm-8.89-16.353l2.783-.774a2.036 2.036 0 0 1 2.476 1.391l.787 2.83 11.4-3.162-.8-2.85a2.036 2.036 0 0 1 1.39-2.463l2.83-.753-3.956-14.25a1.886 1.886 0 0 0-2.348-1.33l-17.215 4.75a1.886 1.886 0 0 0-1.31 2.314l3.957 14.25zm6.216 4.119L27.157 39.3l11.4-3.162-3.162-11.406zM6.448 48.129a1.886 1.886 0 0 0 2.34 1.31l14.318-3.97-.76-2.755a2.036 2.036 0 0 1 1.37-2.456l2.783-.774-3.176-11.406-2.782.773a2.036 2.036 0 0 1-2.463-1.39l-.787-2.857L2.981 28.6a1.886 1.886 0 0 0-1.31 2.314L6.42 48.13zm11.535-23.681l.631 2.273a1.886 1.886 0 0 0 2.294 1.275l2.232-.617-.63-2.273a1.886 1.886 0 0 0-2.315-1.31l-2.232.618zM39.412 36.62l.61 2.198a1.886 1.886 0 0 0 2.314 1.31l2.24-.597-.611-2.199a1.886 1.886 0 0 0-2.314-1.31l-2.24.625zm-.618-17.955l-2.239.625a1.886 1.886 0 0 0-1.303 2.313l.631 2.274 2.24-.625a1.886 1.886 0 0 0 1.31-2.313z" fill="gray" fill-rule="evenodd"/><path d="M41.454 58.49l6.012-1.655a1.886 1.886 0 0 0 1.31-2.314l-1.67-6.005.455-.842 2.036 7.234a2.036 2.036 0 0 1-1.452 2.443l-7.173 1.995zm11.624-20.62l.495-.856 5.992-1.662a1.886 1.886 0 0 0 1.31-2.314l-1.67-6.019.475-.861 2.036 7.267a2.036 2.036 0 0 1-1.425 2.443zm-49.582-.374L1.691 30.84a1.886 1.886 0 0 1 1.323-2.307l6.69-1.819.49-.855-7.92 2.137A2.036 2.036 0 0 0 .87 30.453l2.137 7.898zM15.14 17.024l.489-.848L13.817 9.5a1.886 1.886 0 0 1 1.323-2.307l6.704-1.818.516-.855-7.96 2.15a2.036 2.036 0 0 0-1.404 2.457z" fill="#fff" fill-rule="evenodd"/><path d="M136.309 50.762h-6.677v-1.445h-1.201v-18.85a10.938 10.938 0 0 0-3.026 4.994 24.97 24.97 0 0 0-.937 5.584q-.176 2.551-.176 6.107v3.623h-6.677v-1.458h-1.201v-3.882a58.919 58.919 0 0 1 .577-9.058 20.038 20.038 0 0 1 2.49-7.465 15.213 15.213 0 0 1 6.412-5.543h9.215v1.438h1.201zm-2.036-2.11V24.034h-8.156a14.25 14.25 0 0 0-6.365 5.842 21.714 21.714 0 0 0-2.178 7.837 70.963 70.963 0 0 0-.36 7.729v3.216h5.076V45.7a59.97 59.97 0 0 1 .448-8.143 17.08 17.08 0 0 1 1.873-6.06 16.285 16.285 0 0 1 4.627-4.919v22.074zm23.75-4.805q0 4.072-1.894 5.653-1.893 1.58-6.73 1.567-6.325 0-7.879-2.958-2.035-1.554-2.035-5.727v-8.733q0-4.03 1.913-5.639 1.914-1.608 6.786-1.608 6.276 0 7.837 2.958 2.036 1.629 2.036 5.727v5.123h-11.129v4.438a4.173 4.173 0 0 0 .089.814 5.544 5.544 0 0 0 1.2.109 2.62 2.62 0 0 0 2.036-.631 2.796 2.796 0 0 0 .4-1.737v-2.165h6.189v1.439h1.201v1.357zm-2.036-2.144H151.4a9.323 9.323 0 0 1-.312 3.067q-.624 1.439-2.938 1.439-3.291 0-3.291-3.033V38.08h11.175v-4.431q0-3.848-1.6-5.211-1.602-1.364-6.23-1.358-4.587 0-6.23 1.358-1.641 1.357-1.648 5.19v8.78q0 3.848 1.622 5.212 1.621 1.364 6.256 1.357 4.94 0 6.5-1.628 1.358-1.405 1.358-5.66zM151.4 35.42v-2.402q0-3.183-3.25-3.183t-3.291 3.183v2.402zm-.8-.679v-1.723a5.713 5.713 0 0 0-.089-.964 5.286 5.286 0 0 0-1.16-.108q-1.56 0-2.09.678a3.135 3.135 0 0 0-.4 1.846v.312zm28.892 16.007h-6.14v-1.431h-1.202v-8.87h-3.698v10.315h-6.14v-1.445h-1.202V26.694h6.14v1.438h1.202v6.541h3.739v-7.98h6.14v1.44h1.202v22.629zm-2.036-2.11v-21.28h-4.458v7.987h-6.541V27.36h-4.54v21.293h4.54V38.338h6.541v10.314zm22.929-4.472q0 3.848-1.934 5.36-1.934 1.514-6.589 1.541-5.876 0-7.566-3.067-1.913-1.554-1.913-4.655a15.457 15.457 0 0 1 .176-2.442h5.652v1.438h1.201a24.631 24.631 0 0 0 .089 2.959 6.338 6.338 0 0 0 1.153.074q2.45 0 2.45-2.144v-1.86a2.816 2.816 0 0 0-.041-.59 16.34 16.34 0 0 0-3.427-.183v-1.445h-1.2v-4.03a14.25 14.25 0 0 0 3.114-.184q1.29-.407 1.29-2.144v-.333a1.893 1.893 0 0 1-.048-.298 6.243 6.243 0 0 0-.93-.095q-1.69 0-2.036.848a6.921 6.921 0 0 0-.176 2.11h-5.429a6.786 6.786 0 0 1-.176-1.438h-1.025a6.826 6.826 0 0 1-.176-1.439q0-3.182 2.036-4.546 1.825-1.222 5.828-1.222 6.141 0 7.465 2.776 1.777 1.357 1.777 4.587a4.818 4.818 0 0 1-2.402 4.071 5.11 5.11 0 0 1 1.025 1.296q1.913 1.554 1.913 5.028zm-2.036-1.438a6.175 6.175 0 0 0-.869-3.57 8.054 8.054 0 0 0-3.21-2.34q3.651-2.07 3.651-4.513 0-3.182-1.737-4.288-1.513-.964-5.523-.964-3.739 0-5.3.998-1.737 1.146-1.737 4.071 0 .15.048.774h3.963a3.277 3.277 0 0 1 .678-2.24q.679-.719 2.382-.719 2.986 0 2.986 2.81 0 2.992-3.427 2.992h-.977v2.714h1.16q2.538 0 3.203 1.48a10.212 10.212 0 0 1 .312 3.25q0 2.809-3.25 2.809-2.267 0-2.891-1.405a8.4 8.4 0 0 1-.36-3.067h-4.139q-.135.923-.135 1.812 0 3.107 1.913 4.397 1.737 1.221 5.564 1.221 4.451 0 6.107-1.296 1.656-1.296 1.67-4.92zm22.48 8.02h-5.788v-1.431h-.787a7.681 7.681 0 0 1-4.54 1.811q-3.962 0-5.21-2.551-1.738-1.357-1.738-4.18v-3.393a5.49 5.49 0 0 1 1.201-3.806q1.066-1.256 3.916-2.253h-3.291v-1.412h-1.201v-1.465q0-3.142 2.178-4.472 1.873-1.18 5.829-1.18 6.052 0 7.613 2.958 1.913 1.48 1.913 4.953v16.435zm-7.287-17.506v-.89a1.357 1.357 0 0 1-.041-.298 5.055 5.055 0 0 0-1.113-.108q-1.465 0-1.913.536a2.897 2.897 0 0 0-.448 1.832zm5.387 15.416v-15.79q0-3.324-1.777-4.62-1.65-1.181-5.74-1.181-3.692 0-5.3.963-1.9 1.106-1.9 4.038v.814h3.827q0-3.033 3.162-3.033 2.137 0 2.761 1.18a5.971 5.971 0 0 1 .4 2.715q-1.872.515-5.523 1.703-2.938.997-3.962 1.995a4.75 4.75 0 0 0-1.29 3.623v3.393q0 4.621 4.94 4.621a4.9 4.9 0 0 0 1.29-.15q1.465-.44 4.94-3.324v3.108zm-4.587-5.469v-7.213q-2.035.848-3.25 1.48a7.464 7.464 0 0 0-2.314 1.811 4.071 4.071 0 0 0-.76 2.552v1.357q0 3.033 3.162 3.033t3.162-3.033zm-.8 0v-4.186a8.78 8.78 0 0 0-2.626 1.662 3.657 3.657 0 0 0-.89 2.585v1.357a4.75 4.75 0 0 0 .089.849 5.272 5.272 0 0 0 1.072.074q1.466 0 1.961-.59a2.775 2.775 0 0 0 .4-1.771zm28.98 1.357q0 3.773-2.09 5.252-1.872 1.27-6.547 1.27-6.542 0-8.014-2.919-1.873-1.513-1.873-5.062V31.315a17.507 17.507 0 0 1 .489-4.805 4.953 4.953 0 0 1 3.515-3.474 20.818 20.818 0 0 1 5.3-.482 22.392 22.392 0 0 0 6.14-.773l.936 1.513h.265l1.873 2.993a18.843 18.843 0 0 1-7.254 1.275q-3.393 0-3.915 1.5a13.74 13.74 0 0 1 2.85-.333q4.987 0 6.365 2.626 1.96 1.48 1.96 5.32v7.878zm-2.035-1.438v-7.871q0-3.25-1.201-4.472-1.357-1.357-5.116-1.357a10.925 10.925 0 0 0-4.96 1.303v-2.24q0-3.033 4.851-3.033 4.071 0 6.189-.923l-1.202-1.947a21.374 21.374 0 0 1-5.74.631 22.25 22.25 0 0 0-4.852.367q-3.026.74-3.515 4.75a28.248 28.248 0 0 0-.135 2.992v11.8q0 3.583 1.825 4.804 1.601 1.072 6.053 1.072 4.451 0 6.052-1.072 1.778-1.221 1.778-4.804zm-4.675.332v-8.72q0-2.774-3.162-2.774t-3.203 2.775v8.72q0 2.775 3.203 2.775 3.202 0 3.162-2.776zm-.8 0v-9.018a1.357 1.357 0 0 1-.048-.298 3.847 3.847 0 0 0-.849-.075h-.447a2.375 2.375 0 0 0-1.778.502 2.382 2.382 0 0 0-.448 1.608v9.018a1.357 1.357 0 0 1 .04.299 3.827 3.827 0 0 0 .849.075h.488a2.219 2.219 0 0 0 1.778-.557 2.327 2.327 0 0 0 .4-1.554zm28.532.407q0 4.072-1.893 5.653-1.893 1.58-6.71 1.567-6.325 0-7.879-2.958-2.035-1.554-2.035-5.727v-8.733q0-4.03 1.913-5.639 1.914-1.608 6.786-1.608 6.276 0 7.837 2.958 2.035 1.629 2.035 5.727v8.76zm-2.035-1.438v-8.76q0-3.848-1.602-5.211-1.601-1.364-6.229-1.358-4.587 0-6.229 1.358-1.642 1.357-1.649 5.19v8.78q0 3.848 1.622 5.212 1.622 1.364 6.256 1.357 4.628 0 6.23-1.357 1.6-1.357 1.6-5.211zm-4.676.556v-9.873q.068-3.06-3.087-3.06-3.155 0-3.203 3.033v9.894q0 3.033 3.203 3.033t3.162-3.033zm-.8 0v-9.873a4.153 4.153 0 0 0-.089-.814 4.458 4.458 0 0 0-1.065-.108q-1.513 0-2.036.63a2.796 2.796 0 0 0-.4 1.738v9.866a4.18 4.18 0 0 0 .088.814 5.069 5.069 0 0 0 1.113.109q1.513 0 2.036-.631a3.067 3.067 0 0 0 .36-1.737zm28.892.299q0 4.071-.678 5.428-1.127 2.375-5.225 2.375a5.795 5.795 0 0 1-2.85-.678 11.576 11.576 0 0 1-2.226-1.737v5.428h-6.188v-1.432h-1.201V26.694h5.74v1.438h.978a8.346 8.346 0 0 1 4.94-1.737q3.603 0 4.75 2.368Q285 30.202 285 34.79v8.468zm-2.035-1.439V33.35q0-4.879-2.273-5.876a6.351 6.351 0 0 0-2.49-.407 7.118 7.118 0 0 0-1.602.15q-1.649.406-5.116 3.25v-3.108h-4.14v24.624h4.587v-6.507q1.358 1.296 2.036 1.846a7.75 7.75 0 0 0 2.361 1.479 5.096 5.096 0 0 0 1.514.183q2.537 0 3.65-.868a4.282 4.282 0 0 0 1.357-2.98 29.687 29.687 0 0 0 .136-3.324zm-4.75 1.357V32.868q0-3.033-3.162-3.033t-3.162 3.033v10.314q0 3.034 3.162 3.034t3.162-3.034zm-.8 0V32.868a4.173 4.173 0 0 0-.09-.814 4.465 4.465 0 0 0-1.064-.108q-1.466 0-1.914.536a2.897 2.897 0 0 0-.448 1.832V44.77a4.153 4.153 0 0 0 .041.679 5.069 5.069 0 0 0 1.113.108q1.513 0 2.035-.63a3.06 3.06 0 0 0 .482-1.745z" fill="#4d4d4d" fill-rule="evenodd"/></svg>