<svg xmlns="http://www.w3.org/2000/svg" xmlns:xlink="http://www.w3.org/1999/xlink"><defs><path id="a" d="M.796.188H30v29.813H.796z"/><path id="SVGID_1_" d="M0 0h30v29.9H0z"/></defs><symbol id="alarm" viewBox="0 0 29 33"><path d="M16.441 15.134l-1.335 1.335c-.19-.096-.381-.096-.572-.096-.19 0-.381 0-.572.096l-2.766-2.766a.748.748 0 0 0-1.049 0 .748.748 0 0 0 0 1.05l2.766 2.765c-.096.19-.096.381-.096.572a1.71 1.71 0 0 0 1.717 1.716 1.71 1.71 0 0 0 1.717-1.716c0-.19 0-.382-.096-.572l1.335-1.335a.748.748 0 0 0 0-1.05.748.748 0 0 0-1.049 0zm-1.907 3.433a.41.41 0 0 1-.381-.382c0-.19.19-.381.381-.381.19 0 .381.19.381.381a.41.41 0 0 1-.381.382z"/><path d="M23.021 7.218l.859-1.144 3.242 2.289c.095.095.286.095.381.095h.096c.19 0 .381-.095.477-.286 1.62-2.384 1.049-5.626-1.24-7.248-2.384-1.62-5.627-1.049-7.248 1.24-.19.286-.19.763.191.954l2.956 2.002-.858 1.145C19.779 4.93 17.3 4.167 14.534 4.167s-5.15.858-7.343 2.193l-.763-1.144 2.956-2.003c.286-.19.382-.667.191-.954C7.86-.125 4.616-.697 2.232.924-.152 2.546-.724 5.788.992 8.172c.096.19.286.286.477.286h.095c.191 0 .287 0 .382-.095l3.242-2.289.859 1.144C2.804 9.793.707 13.703.707 18.09c0 4.768 2.479 9.06 6.198 11.539L5.76 31.25c-.19.286-.19.763.191.954.096.19.286.19.382.19.19 0 .477-.095.572-.286l1.24-1.716c1.907.953 4.1 1.526 6.389 1.526 2.289 0 4.482-.573 6.39-1.526l1.24 1.716c.094.191.38.286.571.286.096 0 .286 0 .382-.095.286-.19.381-.667.19-.954l-1.144-1.716c3.72-2.48 6.199-6.676 6.199-11.54 0-4.386-2.098-8.296-5.34-10.87zm2.957-5.15c1.525 1.05 2.002 3.052 1.24 4.578l-6.01-4.196c1.24-1.24 3.243-1.43 4.769-.381zM1.755 6.743c-.667-1.622-.19-3.624 1.335-4.673.668-.477 1.43-.668 2.194-.668.953 0 1.907.382 2.67 1.05zm12.779 23.745A12.373 12.373 0 0 1 2.137 18.09 12.373 12.373 0 0 1 14.534 5.693 12.373 12.373 0 0 1 26.931 18.09a12.373 12.373 0 0 1-12.397 12.397z"/><path d="M14.534 7.981C8.908 7.981 4.33 12.56 4.33 18.09s4.578 10.204 10.204 10.204 10.204-4.578 10.204-10.204c0-5.627-4.578-10.109-10.204-10.109zm8.106 10.872h.667c-.19 1.907-.953 3.624-2.098 5.054l-.476-.477a.748.748 0 0 0-1.05 0 .748.748 0 0 0 0 1.05l.477.476c-1.335 1.144-3.147 1.907-5.054 2.098v-.667a.752.752 0 0 0-.763-.763.752.752 0 0 0-.763.763v.667c-1.907-.19-3.623-.954-5.054-2.098l.477-.477a.748.748 0 0 0 0-1.049.748.748 0 0 0-1.05 0l-.19.382c-1.144-1.335-1.907-3.147-2.098-5.055h.668a.752.752 0 0 0 .763-.763c0-.476-.286-.762-.763-.762h-.668c.19-1.908.954-3.624 2.098-5.055l.477.477c.095.095.286.19.477.19.19 0 .381-.095.477-.19a.748.748 0 0 0 0-1.049l-.382-.286c1.335-1.144 3.147-1.907 5.054-2.098v.668c0 .381.287.762.763.762a.752.752 0 0 0 .763-.762v-.573c1.908.191 3.624.954 5.055 2.098l-.477.477a.748.748 0 0 0 0 1.05c.095.095.286.19.477.19.19 0 .381-.095.476-.19l.477-.478c1.145 1.335 1.907 3.147 2.098 5.055h-.667a.752.752 0 0 0-.763.763c-.096.19.19.572.572.572z"/></symbol><symbol id="calendar" viewBox="0 0 25 24"><path d="M22.917 2.248H19.53V.75c0-.413-.351-.75-.783-.75-.43 0-.782.337-.782.75v1.498h-4.683V.75c0-.413-.351-.75-.782-.75-.432 0-.782.337-.782.75v1.498H7.03V.75c0-.413-.351-.75-.783-.75a.764.764 0 0 0-.777.75v1.498H2.083c-1.148 0-2.083.897-2.083 2v17.749C0 23.103.935 24 2.083 24h20.834C24.065 24 25 23.103 25 21.997V4.247c0-1.102-.935-2-2.083-2zm.519 19.749a.51.51 0 0 1-.519.501H2.083a.51.51 0 0 1-.519-.501V4.247c0-.275.233-.497.519-.497H5.47v1.5c0 .414.346.746.777.746.432 0 .782-.333.782-.746v-1.5h4.688v1.5c0 .414.351.746.782.746.43 0 .782-.333.782-.746v-1.5h4.683v1.5c0 .414.352.746.782.746.432 0 .782-.333.782-.746v-1.5h3.387c.287 0 .519.223.519.497v17.75zm0 0"/><path d="M5.47 9h3.124v2.249H5.47zm0 3.75h3.124v2.248H5.47zm0 3.75h3.124v2.249H5.47zm5.466 0h3.124v2.249h-3.124zm0-3.75h3.124v2.248h-3.124zm0-3.75h3.124v2.249h-3.124zm5.47 7.5h3.124v2.249h-3.124zm0-3.75h3.124v2.248h-3.124zm0-3.75h3.124v2.249h-3.124z"/></symbol><symbol id="clock" viewBox="0 0 24 24"><g><path d="M12 0C5.383 0 0 5.383 0 12c0 6.616 5.382 12 12 12s12-5.383 12-12c0-6.618-5.383-12-12-12zm.788 22.393v-1.604a.79.79 0 0 0-1.578 0v1.604c-5.12-.385-9.22-4.485-9.605-9.605H3.21a.79.79 0 0 0 0-1.577H1.605C1.99 6.09 6.09 1.99 11.21 1.606V3.21a.79.79 0 0 0 1.578 0V1.606c5.12.385 9.22 4.485 9.605 9.605h-1.605a.788.788 0 1 0 0 1.577h1.605c-.385 5.121-4.484 9.22-9.605 9.605zm0 0"/><path d="M17.094 11.212h-4.406L9.136 5.686a.788.788 0 1 0-1.327.853l3.786 5.889.003.005a.684.684 0 0 0 .056.074c.004.007.01.011.015.017.016.016.03.033.046.047l.025.024.045.036a.632.632 0 0 0 .098.064l.012.006a.713.713 0 0 0 .249.08l.024.003a.719.719 0 0 0 .085.005h4.841a.788.788 0 1 0 0-1.577zm0 0"/></g></symbol><symbol id="eye" viewBox="0 0 31 17"><path d="M30.795 8.193a18.372 18.372 0 0 0-30.59 0L0 8.5l.205.307a18.372 18.372 0 0 0 30.59 0L31 8.5zM15.5 15.9A17.27 17.27 0 0 1 1.328 8.5 17.27 17.27 0 0 1 15.5 1.101 17.271 17.271 0 0 1 29.673 8.5 17.271 17.271 0 0 1 15.5 15.899zm0 0"/><path d="M15.51 1.653c-3.633 0-6.59 2.966-6.59 6.612s2.956 6.612 6.59 6.612 6.592-2.966 6.592-6.612-2.958-6.612-6.591-6.612zm0 12.121c-3.027 0-5.492-2.471-5.492-5.51 0-3.037 2.464-5.509 5.493-5.509 3.028 0 5.492 2.472 5.492 5.51s-2.464 5.51-5.492 5.51zm0 0"/><path d="M15.51 6.06a2.204 2.204 0 0 0 .001 4.409c1.211 0 2.196-.99 2.196-2.204a2.203 2.203 0 0 0-2.196-2.204zm0 3.306a1.101 1.101 0 1 1 0-2.203 1.101 1.101 0 1 1 0 2.203zm0 0"/><path d="M16.06 4.408a.55.55 0 0 0-.55-.551c-2.422 0-4.392 1.977-4.392 4.408a.55.55 0 1 0 1.098 0 3.304 3.304 0 0 1 3.295-3.306.551.551 0 0 0 .549-.551zm0 0"/></symbol><symbol id="facebook" viewBox="0 0 26 26"><path d="M26 4.333C26 2.057 23.945 0 21.667 0H4.333C2.055 0 0 2.057 0 4.333v17.333C0 23.943 2.055 26 4.333 26H13v-9.822H9.822v-4.333H13v-1.689c0-2.912 2.187-5.534 4.875-5.534h3.502v4.333h-3.502c-.384 0-.831.465-.831 1.162v1.726h4.333v4.333h-4.333V26h4.623C23.945 26 26 23.943 26 21.667V4.333zm0 0"/></symbol><symbol id="fence" viewBox="190 384 29 22"><path d="M218.463 394.826a.53.53 0 0 0 .537-.524v-4.89a.53.53 0 0 0-.537-.523h-1.611v-1.571a.516.516 0 0 0-.133-.345l-2.506-2.794a.544.544 0 0 0-.809 0l-2.506 2.794a.516.516 0 0 0-.133.345v1.571h-3.222v-1.571a.516.516 0 0 0-.132-.345l-2.507-2.794a.544.544 0 0 0-.808 0l-2.507 2.794a.516.516 0 0 0-.132.345v1.571h-3.222v-1.571a.516.516 0 0 0-.133-.345l-2.506-2.794a.544.544 0 0 0-.809 0l-2.506 2.794a.516.516 0 0 0-.133.345v1.571h-1.611a.53.53 0 0 0-.537.524v4.889c0 .29.24.524.537.524h1.611v1.745h-1.611a.53.53 0 0 0-.537.524v4.89c0 .289.24.523.537.523h1.611v2.444h-.895a.53.53 0 0 0-.537.524c0 .29.24.524.537.524h26.494a.53.53 0 0 0 .537-.524.53.53 0 0 0-.537-.524h-.895v-2.444h1.611a.53.53 0 0 0 .537-.524v-4.889a.53.53 0 0 0-.537-.524h-1.611v-1.745zm-.537-4.89v3.842h-1.074v-3.841zm-10.383 7.683h3.222v3.841h-3.222zm3.222-1.048h-3.222v-1.745h3.222zm-3.222 5.937h3.222v2.444h-3.222zm3.222-12.571v3.841h-3.222v-3.841zm-12.53 7.682h3.222v3.841h-3.222zm3.222-1.048h-3.222v-1.745h3.222zm-3.222 5.937h3.222v2.444h-3.222zm3.222-12.571v3.841h-3.222v-3.841zm-10.383 3.841v-3.841h1.074v3.841zm0 7.682v-3.841h1.074v3.841zm2.148 3.492v-17.438l1.97-2.195 1.969 2.195v17.438zm9.309 0v-17.438l1.969-2.195 1.97 2.195v17.438zm9.308 0v-17.438l1.97-2.195 1.969 2.195v17.438zm6.087-7.333v3.841h-1.074v-3.841z"/><path d="M195.191 390.714a.886.886 0 0 0-.895.873c0 .482.402.874.895.874a.886.886 0 0 0 .896-.874.856.856 0 0 0-.262-.617.902.902 0 0 0-.634-.256zm0 8.381a.886.886 0 0 0-.895.874c0 .481.402.873.895.873a.884.884 0 0 0 .895-.873.856.856 0 0 0-.262-.618.897.897 0 0 0-.633-.256zm9.309-8.381a.886.886 0 0 0-.895.873c0 .482.401.874.895.874a.886.886 0 0 0 .895-.874.856.856 0 0 0-.262-.617.9.9 0 0 0-.633-.256zm0 8.381a.886.886 0 0 0-.895.874c0 .481.401.873.895.873a.884.884 0 0 0 .894-.873.856.856 0 0 0-.262-.618.897.897 0 0 0-.632-.256zm9.309-8.381a.886.886 0 0 0-.896.873c0 .482.402.874.896.874a.886.886 0 0 0 .895-.874.856.856 0 0 0-.262-.617.9.9 0 0 0-.633-.256zm0 8.381a.886.886 0 0 0-.896.874c0 .481.402.873.896.873a.886.886 0 0 0 .895-.873.856.856 0 0 0-.262-.618.9.9 0 0 0-.633-.256z"/></symbol><symbol id="gateway" viewBox="0 0 34 24"><path d="M0 23h6.31v1H0zM6.31 1.014H3.658V0H2.612v1.014H0v1h6.31zM27.69 23H34v1h-6.31zm3.655-21.986V0H30.3v1.014h-2.612v1H34v-1zm0 0"/><path d="M27.69 21.5v1h6.268v-1h-.523v-18h.522v-1h-6.269v1.001h.522v2.5h-1.525V4H25.64v2h-2.612V3h-1.045v3h-2.611V1.5h-1.046V6h-2.612V1.5H14.67V6h-2.612V3h-1.045v3H8.4V4H7.355v2H5.747V3.5h.522v-1H0v1.001h.522V21.5H0v1h6.27v-1h-.523v-1h1.608v3h19.33v-3h1.525v1zm1.567-18h3.134v14h-3.134zm0 15h3.134v3h-3.134zm-24.555 3H1.568v-3h3.134zm0-4H1.568v-14h3.134zm2.653 2H5.747V7h1.608zm3.658 3H8.4v-2h2.612zm0-3H8.4V7h2.612zm3.657 3h-2.612v-2h2.612zm0-3h-2.612v-6.38c.374.24.823.38 1.306.38.483 0 .932-.14 1.306-.38zm-1.306-7c-.72 0-1.306-.561-1.306-1.25 0-.69.586-1.25 1.306-1.25.72 0 1.306.56 1.306 1.25s-.586 1.25-1.306 1.25zm1.306-3.12A2.413 2.413 0 0 0 13.364 9c-.483 0-.932.14-1.306.38V7h2.612zm3.657 13.12h-2.612v-2h2.612zm0-3h-2.612v-6.38c.373.24.824.38 1.306.38.483 0 .932-.14 1.306-.38zm-1.307-7c-.72 0-1.306-.561-1.306-1.25 0-.69.586-1.25 1.306-1.25.72 0 1.306.56 1.306 1.25.001.69-.585 1.25-1.306 1.25zm1.307-3.12A2.416 2.416 0 0 0 17.021 9c-.482 0-.932.14-1.306.38V7h2.612zm3.657 13.12h-2.612v-2h2.612zm0-3h-2.612v-6.38c.374.24.823.38 1.306.38.483 0 .931-.14 1.306-.38zm-1.306-7c-.72 0-1.306-.561-1.306-1.25 0-.69.586-1.25 1.306-1.25.72 0 1.306.56 1.306 1.25s-.586 1.25-1.306 1.25zm1.306-3.12A2.416 2.416 0 0 0 20.678 9c-.483 0-.932.14-1.306.38V7h2.612zM25.64 22.5h-2.612v-2h2.612zm0-3h-2.612V7h2.612zm1.044 0V7h1.525v12.5h-1.525zm0 0"/></symbol><symbol id="google-plus" viewBox="0 0 26 26"><g><path d="M21.119 0H4.871A4.871 4.871 0 0 0 0 4.871V21.12A4.873 4.873 0 0 0 4.871 26H21.12A4.875 4.875 0 0 0 26 21.119V4.871A4.873 4.873 0 0 0 21.119 0zM9.369 21.747c-2.872 0-5.299-1.174-5.299-3.047 0-1.897 2.214-3.729 5.086-3.729l.904-.008c-.396-.38-.707-.857-.707-1.436 0-.341.112-.674.262-.967l-.475.015c-2.364 0-3.95-1.682-3.95-3.76 0-2.039 2.189-3.8 4.505-3.8h5.189l-1.166.833h-1.643c1.087.42 1.676 1.69 1.676 2.998 0 1.097-.611 2.031-1.469 2.705-.833.652-.991.93-.991 1.485 0 .475.896 1.278 1.363 1.611 1.373.967 1.81 1.865 1.81 3.364-.001 1.871-1.81 3.736-5.095 3.736zm13.377-10.346h-3.244v3.246h-1.627v-3.246h-3.254v-1.65h3.254V6.497h1.627v3.254h3.244v1.65zm0 0"/><path d="M11.886 8.941c-.232-1.745-1.501-3.156-2.833-3.197-1.333-.039-2.231 1.302-1.999 3.055.23 1.753 1.499 3.213 2.831 3.254 1.333.038 2.23-1.349 2.001-3.112zm-.89 6.721a4.121 4.121 0 0 0-1.286-.207c-1.99-.022-3.768 1.215-3.768 2.697 0 1.509 1.436 2.77 3.418 2.77 2.801 0 3.77-1.182 3.77-2.697 0-.175-.016-.358-.063-.532-.214-.857-.992-1.286-2.071-2.031zm0 0"/></g></symbol><symbol id="inst" viewBox="0 0 26 26"><g><path d="M19.999 7.002c-.551 0-1.001-.45-1.001-1.001V3.999c0-.551.45-1.001 1.001-1.001h2.002c.546 0 .995.45.995 1.001v2.002c0 .551-.449 1.001-.995 1.001h-2.002zM12.997 9.19c-.722 0-1.396.21-1.972.561.181-.054.366-.093.566-.093 1.07 0 1.934.864 1.934 1.932a1.935 1.935 0 0 1-1.934 1.934 1.93 1.93 0 0 1-1.932-1.934c0-.2.039-.385.093-.566a3.776 3.776 0 0 0-.562 1.973 3.813 3.813 0 1 0 7.626 0 3.812 3.812 0 0 0-3.819-3.807zm0 0"/><path d="M12.997 7.002a5.997 5.997 0 1 1 0 11.996 5.997 5.997 0 0 1-5.995-6.001 5.996 5.996 0 0 1 5.995-5.995m0-2.002C8.588 5 5 8.588 5 12.997 5 17.412 8.588 21 12.997 21 17.412 21 21 17.412 21 12.997 21 8.588 17.412 5 12.997 5zm0 0"/><path d="M21.121 0H4.872A4.873 4.873 0 0 0 0 4.872v16.249A4.874 4.874 0 0 0 4.872 26h16.249A4.876 4.876 0 0 0 26 21.122V4.872A4.874 4.874 0 0 0 21.121 0zm2.877 8.998H17.46a5.958 5.958 0 0 1 1.537 3.999 5.999 5.999 0 1 1-11.996 0c0-1.537.58-2.934 1.532-3.999H2.002V4.872a2.875 2.875 0 0 1 2.87-2.87h16.249a2.876 2.876 0 0 1 2.876 2.87v4.126zm0 0"/></g></symbol><symbol id="mail" viewBox="0 0 22 22"><g><path d="M21 6.749a1.1 1.1 0 0 0-.36.063V1.078C20.64.484 20.146 0 19.537 0H2.466C1.855 0 1.36.483 1.36 1.078V6.81A1.13 1.13 0 0 0 1 6.75c-.481 0-1 .354-1 1.13v12.613C0 21.324.694 22 1.546 22h18.908c.852 0 1.546-.676 1.546-1.508V7.879c.001-.776-.518-1.13-1-1.13zM2.686 1.293h16.629v6.428l-8.02 6.026a.515.515 0 0 1-.295.083.508.508 0 0 1-.296-.083L2.662 7.703a.625.625 0 0 0 .023-.172V1.293zm17.989 19.199a.221.221 0 0 1-.221.216H1.546a.221.221 0 0 1-.22-.216V8.33l8.569 6.44c.302.227.694.352 1.105.352.411 0 .803-.125 1.105-.352l8.57-6.44zm0 0"/><path d="M6.378 4.219H9.28c.366 0 .663-.29.663-.646a.654.654 0 0 0-.663-.647H6.378a.655.655 0 0 0-.663.647c0 .356.297.646.663.646zm0 2.604h8.927c.367 0 .663-.29.663-.647a.654.654 0 0 0-.663-.646H6.378a.655.655 0 0 0-.663.646c0 .357.297.647.663.647zm0 2.604h8.927a.654.654 0 0 0 .663-.646.654.654 0 0 0-.663-.646H6.378a.655.655 0 0 0-.663.646c0 .357.297.646.663.646zm0 0"/></g></symbol><symbol id="map" viewBox="0 0 20 27"><g><path d="M10 4.095c-3.25 0-5.897 2.64-5.897 5.885 0 3.245 2.646 5.885 5.897 5.885 3.252 0 5.897-2.64 5.897-5.885 0-3.246-2.645-5.885-5.897-5.885zm0 10.186a4.312 4.312 0 0 1-4.311-4.302 4.312 4.312 0 0 1 8.622 0A4.31 4.31 0 0 1 10 14.28zm0 0"/><path d="M10 0C4.486 0 0 4.477 0 9.98c0 3.173 2.667 7.901 4.257 10.437 1.046 1.668 2.17 3.256 3.164 4.47C9.02 26.838 9.59 27 10 27c.417 0 .956-.163 2.548-2.113.997-1.223 2.122-2.81 3.167-4.469C17.315 17.876 20 13.14 20 9.98 20 4.477 15.514 0 10 0zm4.615 19.186c-2.051 3.323-3.933 5.567-4.624 6.14-.694-.556-2.547-2.747-4.626-6.13-2.401-3.907-3.778-7.266-3.778-9.216 0-4.63 3.774-8.396 8.413-8.396s8.414 3.766 8.414 8.396c0 1.94-1.385 5.295-3.799 9.206zm0 0"/></g></symbol><symbol id="medal" viewBox="0 0 24 32"><path d="M8.313 32.158a.84.84 0 0 1-.72-.4l-2.078-3.437-4.156.88a.76.76 0 0 1-.8-.32c-.24-.24-.24-.56-.16-.88l3.598-8.792c.16-.4.64-.64 1.119-.48.48.24.64.72.48 1.2l-2.958 7.353 3.117-.719c.32-.08.72.08.88.4l1.518 2.557 2.878-7.114c.16-.4.64-.639 1.119-.48.4.16.64.64.48 1.12l-3.518 8.633c-.08.24-.4.48-.799.48.08 0 .08 0 0 0z"/><path d="M15.987 32.158c-.4 0-.64-.24-.8-.56l-3.437-8.392c-.16-.4 0-.96.48-1.12.4-.16.959 0 1.119.48l2.798 6.795 1.518-2.558c.16-.32.56-.48.88-.4l3.117.72-3.197-7.914c-.16-.4 0-.96.48-1.119.399-.16.958 0 1.118.48l3.837 9.352c.08.32.08.64-.16.88-.24.239-.48.319-.8.319l-4.156-.88-2.078 3.438c-.16.32-.4.48-.72.48z"/><path d="M12.87 24.005c-.16 0-.32-.08-.48-.16l-2.159-1.359-2.477.64c-.4.08-.8-.08-.96-.4l-1.279-2.238-2.478-.56c-.4-.08-.639-.4-.639-.799l-.08-2.558L.32 14.893c-.32-.24-.4-.64-.24-1.04l1.119-2.318-.96-2.398c-.16-.32 0-.799.24-.959l2.08-1.518.24-2.478c0-.4.32-.72.72-.72l2.557-.4L7.514.905c.24-.32.64-.48.959-.32l2.478.8 2.238-1.28c.32-.16.72-.16 1.04.16l1.758 1.838 2.558-.08c.4 0 .719.24.799.64l.64 2.398L22.3 6.18c.32.16.56.56.48.96l-.48 2.557 1.52 2.078c.239.32.239.72 0 1.04l-1.6 1.998.4 2.558c.08.4-.16.719-.48.879l-2.397 1.039-.88 2.398c-.16.4-.48.56-.879.56l-2.558-.24-1.918 1.758c-.24.16-.4.24-.64.24zm-2.479-3.277c.16 0 .32.08.48.16l1.918 1.199 1.679-1.599c.16-.16.4-.24.64-.24l2.317.16.72-2.158c.08-.24.24-.4.48-.48l2.078-.879-.32-2.238c0-.24 0-.48.16-.64l1.439-1.758-1.36-1.839c-.16-.16-.16-.4-.16-.64l.48-2.237-2.078-1.04a.601.601 0 0 1-.4-.559l-.639-2.238-2.318.08c-.24 0-.48-.08-.64-.24L13.27 1.864l-2 1.119c-.24.08-.48.16-.64.08l-2.158-.72-1.279 1.919c-.08.16-.32.32-.56.32l-2.238.399-.24 2.238c0 .24-.16.48-.32.56L1.999 9.137l.88 2.239c.08.24.08.48 0 .719l-.96 2.078 1.759 1.44c.16.159.32.399.32.639v2.238l2.238.48c.24.08.4.16.56.399l1.118 1.998 2.239-.64h.24z"/><path d="M11.83 19.369c-4.156 0-7.594-3.357-7.594-7.594a7.54 7.54 0 0 1 7.594-7.593 7.54 7.54 0 0 1 7.594 7.593c0 4.237-3.437 7.594-7.594 7.594zm0-13.988c-3.517 0-6.474 2.877-6.474 6.474a6.448 6.448 0 0 0 6.474 6.475 6.448 6.448 0 0 0 6.475-6.475c0-3.597-2.958-6.474-6.475-6.474z"/><path d="M9.432 15.932c-.08 0-.24 0-.32-.08a.726.726 0 0 1-.24-.56l.4-2.558-1.838-1.758c-.16-.16-.24-.4-.16-.56.08-.24.24-.32.48-.4l2.557-.399 1.12-2.238c.08-.16.32-.32.48-.32.239 0 .399.16.479.32l1.119 2.318 2.558.4c.24 0 .4.16.48.4.08.24 0 .399-.16.559l-1.84 1.758.4 2.558c0 .24-.08.4-.24.56a.491.491 0 0 1-.559.08l-2.158-1.36-2.238 1.2c-.16.08-.24.08-.32.08zm-.4-4.956l1.2 1.199c.16.16.16.32.16.48l-.32 1.678 1.518-.8c.16-.08.32-.08.56 0l1.519.8-.32-1.678c0-.16 0-.4.16-.48l1.199-1.2-1.679-.239c-.16 0-.32-.16-.4-.32l-.799-1.518-.8 1.518c-.08.16-.239.32-.399.32z"/></symbol><symbol id="money-bag" viewBox="0 0 30.000002 31"><path d="M8.186 5.181a1.478 1.478 0 0 0 1.386 1.017h3.774c.623 0 1.181-.409 1.387-1.017.198-.583.816-1.882 1.297-2.295.421-.364.62-.925.515-1.469A1.461 1.461 0 0 0 15.567.29c-1.526-.515-2.877-.341-3.911.499a.474.474 0 0 1-.617 0c-1.034-.84-2.385-1.014-3.911-.5a1.464 1.464 0 0 0-.98 1.128 1.56 1.56 0 0 0 .516 1.47c.543.465 1.376 1.86 1.522 2.294zM7.145 1.615a.439.439 0 0 1 .302-.343c.472-.16.913-.24 1.32-.24a2.52 2.52 0 0 1 1.638.564 1.479 1.479 0 0 0 1.886 0c.764-.62 1.756-.728 2.956-.324a.44.44 0 0 1 .303.343.51.51 0 0 1-.176.481c-.777.67-1.47 2.367-1.6 2.75a.456.456 0 0 1-.427.32H9.575a.457.457 0 0 1-.427-.32c-.213-.625-1.155-2.167-1.827-2.75a.506.506 0 0 1-.176-.481zm8.632 5.618a.514.514 0 0 0-.508-.517.492.492 0 0 0-.253.08.464.464 0 0 0-.253-.08H8.667a.514.514 0 0 0-.508.517c0 .285.227.517.508.517h6.096v.517H9.175c-.28 0-.508.23-.508.514 0 .287.229.517.508.517h6.057a2.487 2.487 0 0 0 1.614.606c.68 0 1.317-.268 1.796-.757a.521.521 0 0 0 0-.73.5.5 0 0 0-.717 0c-.575.583-1.57.586-2.148.008zm0 0"/><g transform="matrix(1.04348 0 0 1.0615 -.83 -.845)"><path d="M11.049 13.452c-3.121 0-6.814 3.957-6.814 7.301 0 .268.219.484.487.484a.485.485 0 0 0 .487-.484c0-2.781 3.275-6.329 5.84-6.329a.486.486 0 1 0 0-.972zm0 0"/><path d="M24.679 16.37c-.504 0-1.101.031-1.704.1a9.582 9.582 0 0 0-2.61-3.068l-3.506-2.384c-.58-.445-1.495-.975-2.555-.975H10.52c-.936 0-1.858.318-2.581.886l-3.444 2.51C.904 16.263-.232 21.21 1.793 25.203c.737 1.452 1.968 3.208 3.651 3.323.13.01.266.014.399.014h9.471A3.89 3.89 0 0 0 18.35 30a3.892 3.892 0 0 0 3.329-1.882c.87.268 1.935.423 3 .423 2.341 0 4.867-.743 4.867-1.949v-2.676h-.04a.825.825 0 0 0 .04-.243v-5.599c0-1.345-3.061-1.704-4.867-1.704zm3.855 1.699c-.01.012-.017.022-.031.033a.744.744 0 0 1-.069.047 1.76 1.76 0 0 1-.112.062c-.035.019-.071.035-.114.055-.05.024-.11.045-.172.069-.05.019-.1.038-.156.057l-.235.069c-.064.016-.128.036-.2.055a13.527 13.527 0 0 1-.537.111c-.116.022-.247.038-.375.055-.088.012-.171.026-.266.038-.152.016-.321.029-.489.04-.086.007-.164.016-.252.021a15.061 15.061 0 0 1-1.698 0c-.088-.005-.166-.014-.252-.021a14.926 14.926 0 0 1-.489-.04c-.096-.012-.178-.026-.266-.038a6.235 6.235 0 0 1-.375-.055c-.086-.014-.159-.03-.238-.047a13.527 13.527 0 0 1-.299-.064c-.071-.019-.135-.036-.2-.055-.081-.024-.164-.047-.235-.069-.057-.019-.106-.038-.156-.057-.062-.024-.122-.045-.172-.069a1.754 1.754 0 0 1-.295-.164.411.411 0 0 1-.029-.031l.016-.014a.546.546 0 0 1 .069-.047c.038-.026.088-.055.145-.083l.1-.047.128-.052.171-.062.133-.043c.11-.033.228-.066.359-.097.061-.015.131-.029.197-.043.078-.017.162-.033.247-.048l.299-.05a13.27 13.27 0 0 1 1.99-.14c2.298-.001 3.587.474 3.858.724zm-7.422 4.005l.135.055c.086.033.172.064.262.096l.142.047c.102.03.207.061.316.09l.111.031c.148.035.3.071.454.1.03.007.066.012.097.019.124.021.249.043.378.062l.164.024c.11.014.221.029.33.038l.176.019c.114.009.231.016.347.024.05.002.102.007.155.009.166.007.332.012.496.012.166 0 .333-.005.499-.012l.157-.009c.114-.007.231-.015.343-.024.061-.005.121-.012.181-.019.109-.009.218-.024.326-.038.057-.007.114-.015.169-.024.126-.017.249-.038.371-.062.036-.007.072-.012.105-.019.155-.031.304-.065.451-.1.041-.01.078-.021.119-.033.107-.029.209-.057.311-.088a6.19 6.19 0 0 0 .405-.143c.045-.019.09-.035.133-.055.088-.035.172-.076.252-.116.026-.012.055-.021.078-.036l.002 1.716c-.114.276-1.371.893-3.355.994-.178.004-.352.014-.545.014-1.072 0-2.129-.164-2.94-.454a3.559 3.559 0 0 0-.417-.597c-.019-.024-.04-.045-.061-.069a2.682 2.682 0 0 0-.186-.197c-.033-.033-.069-.062-.102-.095-.057-.05-.111-.102-.171-.15a.206.206 0 0 0-.016-.015v-1.146l.08.036c.081.041.162.079.248.115zm-6.43 5.492H5.844c-.112 0-.223-.005-.335-.012-.955-.064-1.968-1.055-2.847-2.79-1.816-3.581-.791-8.021 2.422-10.548l3.444-2.51a3.243 3.243 0 0 1 1.991-.689h3.786c.787 0 1.502.42 1.985.789l3.506 2.381a8.608 8.608 0 0 1 2.162 2.436c-.615.126-1.212.321-1.621.604l-.033.024a1.867 1.867 0 0 0-.171.142.52.52 0 0 0-.059.064.786.786 0 0 0-.169.248.78.78 0 0 0-.095.368v4.426a3.556 3.556 0 0 0-.506-.164l-.069-.019a3.803 3.803 0 0 0-.523-.086c-.019-.002-.04-.002-.059-.002-.1-.009-.2-.016-.302-.016-.055 0-.105.007-.159.01-.041 0-.081.002-.124.004a4.487 4.487 0 0 0-.511.067c-.002.002-.005.002-.01.002-.012.002-.026.009-.038.012a3.948 3.948 0 0 0-.447.128l-.156.057c-.143.06-.285.124-.421.197-.05.029-.1.06-.147.091a3.624 3.624 0 0 0-.278.185c-.052.038-.105.076-.157.117a3.374 3.374 0 0 0-.453.439 3.914 3.914 0 0 0-.209.254c-.035.047-.074.093-.107.141a3.46 3.46 0 0 0-.308.554c-.057.119-.107.24-.15.366-.012.036-.029.072-.038.107a3.385 3.385 0 0 0-.116.492l-.017.064c-.002.026-.002.055-.007.081a3.991 3.991 0 0 0-.029.347c-.002.043-.007.083-.007.126l-.002.055c0 .076.007.152.012.228.016.42.082.843.21 1.23zm3.668 1.459c-1.6 0-2.9-1.29-2.919-2.885l.002-.114c.002-.052.004-.107.009-.159.002-.045.007-.088.015-.133.004-.045.012-.09.019-.136.024-.126.05-.249.09-.371.002-.014.01-.026.012-.038a3.14 3.14 0 0 1 .163-.39 3.005 3.005 0 0 1 1.179-1.238c.002 0 .002-.002.005-.002a2.65 2.65 0 0 1 .357-.169l.095-.035c.107-.038.218-.071.33-.095.016-.005.031-.01.047-.012.14-.029.28-.045.42-.052.029-.002.055-.005.081-.005.145-.004.288 0 .428.017l.024.002c.15.019.298.05.442.09l.007.002a3.029 3.029 0 0 1 .817.378l.019.014c.016.012.033.026.05.036.081.06.157.121.233.186l.052.05c.074.069.145.14.212.216l.021.021a2.923 2.923 0 0 1 .466.741c.038.086.071.171.1.259 0 .005.005.012.005.019.029.088.052.176.071.266.002.007.005.014.005.021.019.09.033.181.043.271.002.01.002.017.005.024a3.006 3.006 0 0 1-.002.608c0 .015-.005.029-.005.045a3.25 3.25 0 0 1-.043.262c-.002.01-.007.019-.007.029a3.67 3.67 0 0 1-.076.276l-.005.01a2.923 2.923 0 0 1-2.767 1.991zm6.329-1.459c-.925 0-1.844-.124-2.6-.345v-.002c.048-.156.083-.321.11-.484.007-.041.015-.078.019-.119.022-.169.038-.337.038-.511a2.66 2.66 0 0 0-.038-.506 2.215 2.215 0 0 0-.026-.187c.739.135 1.597.209 2.498.209 1.162 0 2.845-.15 3.895-.613l.002 1.552c-.124.298-1.603 1.006-3.898 1.006zm0-5.842c-2.291 0-3.765-.701-3.893-.97l.002-1.587.038.015c.116.05.237.097.368.14l.021.007c.131.043.271.081.414.116.047.012.095.021.143.033.104.024.209.047.316.066.052.01.105.021.157.029.119.021.238.04.359.057l.111.019c.157.019.316.038.471.055.04.002.078.005.119.01l.357.028c.05.002.1.005.15.01l.321.014c.046.002.088.002.133.005a11.742 11.742 0 0 0 .825 0c.045-.002.09-.002.133-.005l.319-.014c.052-.005.102-.007.155-.01l.357-.028c.038-.005.076-.007.116-.012.157-.014.314-.033.471-.055.038-.005.076-.012.114-.016.121-.017.24-.036.357-.057l.157-.029c.107-.021.214-.043.318-.069a4.928 4.928 0 0 0 .563-.152l.021-.007c.126-.04.247-.088.361-.135.014-.007.029-.012.043-.017l.002 1.552c-.125.302-1.604 1.007-3.899 1.007zm0 0"/></g></symbol><symbol id="phone" viewBox="0 0 22 22"><path d="M21.366 16.517l-3.18-3.195a2.258 2.258 0 0 0-1.61-.662 2.37 2.37 0 0 0-1.69.708l-1.238 1.243c-.962-.537-2.24-1.276-3.567-2.61C8.757 10.67 8.02 9.39 7.484 8.42l1.24-1.244c.92-.927.94-2.415.042-3.316L5.586.665A2.25 2.25 0 0 0 3.976 0c-.622 0-1.21.24-1.662.678C2.041.9.671 2.114.16 4.62c-.715 3.507.928 6.88 5.67 11.646C11.127 21.586 15.65 22 16.91 22c.262 0 .42-.016.462-.022 2.471-.29 3.355-1.392 4.002-2.197.838-1.043.834-2.415-.008-3.264zm-1.054 2.404c-.607.756-1.181 1.47-3.097 1.696-.001 0-.105.013-.304.013-1.127 0-5.188-.385-10.114-5.331C2.423 10.904.889 7.89 1.499 4.896c.445-2.185 1.627-3.114 1.673-3.15l.041-.03.036-.037a1.02 1.02 0 0 1 .727-.308c.247 0 .476.093.644.263L7.8 4.828c.366.367.347.985-.043 1.377l-1.4 1.406-.024.025c-.365.404-.322.95-.12 1.305.58 1.052 1.375 2.493 2.904 4.03 1.525 1.531 2.957 2.329 4.002 2.91.105.06.32.159.59.159.319 0 .612-.136.83-.383l1.315-1.32c.196-.197.454-.306.724-.306.248 0 .478.093.646.262l3.177 3.193c.403.407.237 1.03-.089 1.435zM13.328 3.36c1.173.136 2.554.85 3.518 1.818.974.978 1.686 2.38 1.815 3.57a.684.684 0 0 0 .752.608.684.684 0 0 0 .605-.756c-.163-1.505-1.009-3.188-2.206-4.392-1.188-1.192-2.845-2.04-4.328-2.21a.686.686 0 1 0-.156 1.363zm-.638 2.872c.635.073 1.513.546 2.088 1.124.58.583 1.052 1.473 1.12 2.118a.684.684 0 0 0 .753.607.684.684 0 0 0 .605-.755c-.119-1.1-.846-2.268-1.513-2.939-.662-.665-1.814-1.39-2.896-1.516a.685.685 0 0 0-.156 1.361zm0 0"/></symbol><symbol id="splash_1" viewBox="0 0 8.6161251 16.237104" preserveAspectRatio="none"><path d="M5.577 2.433C4.479.745 3.443.113 2.348.007 1.979-.028 1.307.069.921.27.114.686-.17 1.294.098 2.305c.284 1.073.781 2.031 3.773 4.457 3.303 2.679 3.93 3.701 3.977 6.466.016.975-.047 2.05-.141 2.392-.23.831.114.851.449-.113.665-1.915.564-5.595-.014-7.503a21.476 21.476 0 0 0-2.565-5.571z"/></symbol><symbol id="splash_2" viewBox="0 0 30.000006 63.110339" preserveAspectRatio="none"><path d="M9.605 7.634C14.177 1.173 16.598-.298 22.13.047c.984.06 1.897.23 2.709.514 5.7 1.984 7.026 9.014 2.225 15.381-1.204 1.616-5.698 6.117-9.982 10.015-4.287 3.899-8.571 8.288-9.515 9.745C3.833 41.44 2.85 51.188 5.152 59.73c.9 3.222.77 5.575-1.823.135-4.892-10.262-4.405-23.23 1.546-41.938 1.606-5.052 2.67-7.392 4.73-10.293z"/></symbol><symbol id="tools" viewBox="0 0 28 28"><style id="style2">.st0{clip-path:url(#SVGID_2_)}</style><g transform="matrix(.9344 0 0 .93645 -.032 0)" id="g18"><g id="g14"><clipPath id="SVGID_2_"><use height="100%" width="100%" id="use7" xlink:href="#SVGID_1_" overflow="visible"/></clipPath><path id="path10" d="M27.8 22.7L25 19.5l-.1-.1-5.2-3.1-.7-2c-.1-.2-.2-.3-.4-.3s-.4 0-.5.1l-1.5 1.5-9.1-9.4L5.7 3l-.2-.2-2.9-1.5c-.2 0-.5 0-.6.1L.2 3.3c-.2.1-.2.4-.1.6l1.5 2.9c0 .1.1.2.2.2L5 8.8l9.3 9.3-1.5 1.5c-.1.1-.2.3-.1.5 0 .2.2.3.3.4l2 .7 3.2 5.3.1.1 3.1 2.7c.6.5 1.4.8 2.1.8.8 0 1.7-.3 2.3-.9l1.8-1.8c1.2-1.5 1.3-3.5.2-4.7zM5.6 8l-.1-.1-3.1-1.7-1.3-2.5 1.3-1.3 2.4 1.2 1.8 3.2.1.1 9.3 9.3-1 1.1zm21.3 18.4l-1.8 1.8c-.8.8-2.2.9-3.1.1l-3-2.6-3.2-5.3c-.1-.1-.2-.2-.3-.2l-1.4-.5 1.4-1.4 1.6-1.6 1.2-1.2.5 1.4c0 .1.1.2.2.3l5.3 3.2 2.7 3.1c.8.7.7 2.1-.1 2.9zm0 0" class="st0"/><path id="path12" d="M29.8 13.2L28 11.4c-.2-.2-.5-.2-.7 0l-.4.4-1.8-1.8.4-.4c.2-.2.2-.5 0-.7l-4.7-4.7c-.1-.1-2.6-2.6-4.1-3.4-1.6-.8-3.2-.8-3.2-.8-.2 0-.4.1-.5.3-.1.2 0 .4.1.6 0 0 2.1 2.1 2.8 3.5.7 1.3.7 3.4.7 3.4 0 .1.1.3.2.4l.4.4-2.9 2.9c-.2.2-.2.5 0 .7.2.2.5.2.7 0l2.9-2.9 1.5 1.5-2.9 2.9c-.2.2-.2.5 0 .7.1.1.2.2.4.2s.3-.1.4-.2l2.9-2.9 1.5 1.5c.2.2.5.2.7 0l.4-.4 1.8 1.8-.6.3c-.2.2-.2.5 0 .7l1.8 1.8c.1.1.2.2.4.2.1 0 .3-.1.4-.2l3.3-3.3c.1-.1.2-.2.2-.4l-.3-.3zm-3.6 2.9L25.1 15l.4-.4c.2-.2.2-.5 0-.7L23 11.4c-.2-.2-.5-.2-.7 0l-.4.4-4.2-4.2c0-.6-.1-2.4-.8-3.7-.4-.8-1.3-1.9-2-2.7.4.1.9.2 1.4.5 1.2.7 3.7 3.1 3.7 3.2l4.4 4.4-.4.3c-.2.2-.2.5 0 .7l2.5 2.5c.2.2.5.2.7 0l.4-.4 1.1 1.1zm0 0" class="st0"/></g><path id="path16" d="M12.5 18.2c-.2-.2-.5-.2-.7 0l-8.1 8.1c-.4.4-1.1.4-1.5 0-.1-.2-.2-.5-.2-.8 0-.3.1-.5.3-.7l8-8c.2-.2.2-.5 0-.7-.2-.2-.5-.2-.7 0l-8 8c-.4.4-.6.9-.6 1.5 0 .5.2 1.1.6 1.5.4.4.9.6 1.5.6.5 0 1.1-.2 1.5-.6l8.1-8.1c0-.3 0-.6-.2-.8zm0 0"/></g></symbol><symbol id="vkontakte" viewBox="0 0 26 26"><path d="M14.202 14.33c-.416-.243-.996-.243-1.467-.243H11.19v3.186h1.419c.525 0 1.194.037 1.648-.281.415-.28.651-.829.651-1.353-.001-.485-.291-1.067-.706-1.309zm-.583-2.721c.344-.262.525-.729.525-1.16 0-.467-.217-.915-.615-1.158-.417-.242-1.177-.186-1.666-.186h-.673v2.803h.891c.507 0 1.104.037 1.538-.299zM21.231 0H4.371a4.57 4.57 0 0 0-4.57 4.57v16.86A4.57 4.57 0 0 0 4.371 26H21.23a4.571 4.571 0 0 0 4.57-4.57V4.57A4.57 4.57 0 0 0 21.231 0zm-7.725 19.644H8.194V6.825h5.804c1.681 0 3.232 1.07 3.232 2.958 0 1.457-.815 2.454-1.851 2.765v.037c1.538.319 2.637 1.154 2.637 3.17 0 1.868-1.27 3.889-4.51 3.889zm0 0"/></symbol></svg>