<svg xmlns="http://www.w3.org/2000/svg" height="118" width="114" viewBox="147 337 114 117.99982"><ellipse ry="2.305" rx="2.306" cy="430.731" cx="165.128" fill="#1d1d1d"/><ellipse ry="2.305" rx="2.306" cy="403.248" cx="253.444" fill="#1d1d1d"/><path d="M223.209 379.825h3.923a1.65 1.65 0 0 1 1.648 1.646 2.306 2.306 0 0 0 4.613 0c0-3.397-2.726-6.17-6.107-6.252v-1.978a2.306 2.306 0 0 0-4.612 0v1.998c-3.412.273-6.106 3.135-6.106 6.615v2.058c0 3.66 2.979 6.637 6.641 6.637H226.75c1.12 0 2.03.91 2.03 2.03v2.057c0 1.118-.91 2.029-2.03 2.029h-3.923a1.65 1.65 0 0 1-1.648-1.646 2.306 2.306 0 0 0-4.612 0c0 3.398 2.725 6.17 6.106 6.252v1.978a2.306 2.306 0 0 0 4.612 0v-1.998c3.413-.273 6.107-3.135 6.107-6.614v-2.058c0-3.66-2.98-6.637-6.642-6.637H223.21a2.03 2.03 0 0 1-2.03-2.029v-2.058a2.032 2.032 0 0 1 2.03-2.03z" fill="#1d1d1d"/><path d="M260.246 415.133a8.738 8.738 0 0 0-4.868-4.646 8.739 8.739 0 0 0-6.73.155l-.035.015-14.526 6.694a2.304 2.304 0 1 0 1.932 4.186l14.507-6.685a4.158 4.158 0 0 1 3.185-.067 4.153 4.153 0 0 1 2.315 2.21 4.15 4.15 0 0 1 .074 3.198 4.15 4.15 0 0 1-2.211 2.314l-29.726 13.116a17.158 17.158 0 0 1-14.597-.33l-10.881-5.402a21.755 21.755 0 0 0-18.513-.42l-.139.062-8.065-18.256 11.214-4.948a22.394 22.394 0 0 1 16.837-.538l21.881 8.031c1.954.717 2.996 2.903 2.322 4.871a3.869 3.869 0 0 1-4.89 2.407l-16.92-5.72a2.304 2.304 0 1 0-1.478 4.366l16.92 5.72a8.413 8.413 0 0 0 2.703.446c3.525 0 6.828-2.217 8.03-5.727 1.478-4.32-.809-9.115-5.097-10.69l-21.881-8.03a27.42 27.42 0 0 0-4.487-1.227v-12.74c0-12.56 10.226-22.78 22.795-22.78h8.422c12.57 0 22.795 10.219 22.795 22.78v6.006a2.306 2.306 0 0 0 4.613 0v-6.006c0-13.302-9.54-24.419-22.14-26.881v-6.943l5.826-9.96a2.303 2.303 0 0 0-1.037-3.262l-7.146-3.245a2.309 2.309 0 0 0-1.735-.071l-5.302 1.907-4.704-1.879a2.312 2.312 0 0 0-1.686-.01l-7.478 2.883a2.303 2.303 0 0 0-1.187 3.268l5.738 10.34v6.923c-12.722 2.364-22.385 13.539-22.385 26.928v12.298a27.036 27.036 0 0 0-11.192 2.315l-11.297 4.986a5.672 5.672 0 0 0-2.678-2.145 5.676 5.676 0 0 0-4.368.098l-14.596 6.392a2.306 2.306 0 0 0-1.38 2.111v39.145a2.302 2.302 0 0 0 2.306 2.304c.356 0 .713-.082 1.04-.248l28.335-14.306a5.672 5.672 0 0 0 2.96-3.134 5.674 5.674 0 0 0 .194-3.538l.2-.089a17.158 17.158 0 0 1 14.597.33l10.881 5.403a21.762 21.762 0 0 0 18.513.419l29.725-13.117a8.737 8.737 0 0 0 4.65-4.865 8.714 8.714 0 0 0-.155-6.722zm-41.605-73.35l4.675 1.868c.524.21 1.107.22 1.638.029l5.245-1.887 3.966 1.801-4.185 7.154h-11.417l-4.084-7.36zm.87 18.325v-4.751h9.486v4.751h-9.077zM176.76 436.26a2.149 2.149 0 0 0-.108.05l-25.036 12.64v-9.34l6.483-3.181a2.305 2.305 0 1 0-2.033-4.138l-4.45 2.184v-19.417l13.22-5.79a1.104 1.104 0 0 1 1.454.563l.528 1.195v.001l.001.001 10.504 23.774a1.106 1.106 0 0 1-.563 1.458z" fill="#1d1d1d"/></svg>