<svg xmlns="http://www.w3.org/2000/svg" height="109.069" width="114" viewBox="0 0 114 109.06934" data-name="Layer 2"><title>Miscellaneous</title><path d="M112.678 0H1.322A1.322 1.322 0 0 0 0 1.322v23.794a1.322 1.322 0 0 0 1.322 1.322h111.356A1.322 1.322 0 0 0 114 25.116V1.322A1.322 1.322 0 0 0 112.678 0zm-1.322 23.794h-5.116v-6.12a1.322 1.322 0 0 0-2.643 0v6.094H92.612V12.545a1.322 1.322 0 1 0-2.644 0v11.223H78.996v-6.094a1.322 1.322 0 1 0-2.643 0v6.094H65.368V12.545a1.322 1.322 0 0 0-2.644 0v11.223H51.712v-6.094a1.322 1.322 0 0 0-2.643 0v6.094H38.123V12.545a1.322 1.322 0 0 0-2.643 0v11.223H24.508v-6.094a1.322 1.322 0 0 0-2.644 0v6.094H10.88V12.545a1.322 1.322 0 0 0-2.644 0v11.223H2.644V2.618h108.712v21.15z" fill="#1d1d1d"/><path d="M104.588 11.87a3.966 3.966 0 1 0-3.966-3.965 3.966 3.966 0 0 0 3.966 3.966zm0-5.287a1.322 1.322 0 1 1-1.322 1.322 1.322 1.322 0 0 1 1.322-1.322zM112.678 82.671h-60.12l-2.643 2.644h61.441v21.15h-5.116v-6.133a1.322 1.322 0 0 0-2.643 0v6.094H92.612V95.203a1.322 1.322 0 0 0-2.644 0v11.223H78.996v-6.094a1.322 1.322 0 0 0-2.643 0v6.094H65.368V95.203a1.322 1.322 0 0 0-2.644 0v11.223H51.712v-6.094a1.322 1.322 0 0 0-2.643 0v6.094H38.123v-9.32L35.48 99.75v6.689h-24.6V95.203a1.322 1.322 0 0 0-2.645 0v11.223H2.644v-21.15h2.908a3.966 3.966 0 0 1 .82-1.323l1.321-1.322H1.322A1.322 1.322 0 0 0 0 83.953v23.794a1.322 1.322 0 0 0 1.322 1.322h111.356a1.322 1.322 0 0 0 1.322-1.322V83.953a1.322 1.322 0 0 0-1.322-1.282z" fill="#1d1d1d"/><path d="M108.554 90.576a3.966 3.966 0 1 0-3.966 3.966 3.966 3.966 0 0 0 3.966-3.966zm-5.288 0a1.322 1.322 0 1 1 1.322 1.322 1.322 1.322 0 0 1-1.322-1.322zM65.116 29.055L8.275 85.897a1.322 1.322 0 0 0-.383.938 1.322 1.322 0 0 0 .383.925l16.815 16.775a1.322 1.322 0 0 0 .938.397 1.322 1.322 0 0 0 .939-.397l75.48-75.48h-3.741L26.002 101.76 11.104 86.81l3.595-3.622 4.297 4.296a1.322 1.322 0 0 0 1.863 0 1.322 1.322 0 0 0 0-1.864l-4.296-4.296 7.76-7.773 7.931 7.931a1.322 1.322 0 0 0 .939.384 1.322 1.322 0 0 0 .925-2.26l-7.931-7.932 7.76-7.773 4.295 4.31a1.322 1.322 0 0 0 .939.383 1.322 1.322 0 0 0 .938-.383 1.322 1.322 0 0 0 0-1.877l-4.27-4.283 7.76-7.76 7.932 7.931a1.322 1.322 0 0 0 .938.397 1.322 1.322 0 0 0 .939-2.26l-7.932-7.932 7.773-7.76 4.296 4.297a1.322 1.322 0 0 0 1.864 0 1.322 1.322 0 0 0 0-1.864l-4.296-4.296 7.76-7.773 7.93 7.932a1.323 1.323 0 0 0 1.865-1.878l-7.932-7.93 4.151-4.099z" fill="#1d1d1d"/><path d="M24.283 90.444a3.966 3.966 0 0 0 2.803 6.781 3.966 3.966 0 0 0 2.802-1.163 3.966 3.966 0 0 0 0-5.618 4.071 4.071 0 0 0-5.605 0zm4.124 2.816a1.322 1.322 0 0 1-.396.925 1.322 1.322 0 0 1-.925.37 1.322 1.322 0 0 1-.939-.357 1.323 1.323 0 0 1 1.877-1.864 1.322 1.322 0 0 1 .383.926z" fill="#1d1d1d"/></svg>